<svg xmlns="http://www.w3.org/2000/svg" width="412" height="43" viewBox="0 0 412 43" fill="none"><g opacity="0.8"><g clip-path="url(#clip0_1_4152)"><path d="M28.005 5.6656C11.661 23.0994 6.92806 35.5154 6.92806 35.5154C10.4779 39.5976 16.5279 39.2536 16.5279 39.2536C22.9049 39.4511 26.8103 35.5323 26.8103 35.5323C34.7349 27.6218 33.7591 5.15266 33.7591 5.15266C32.1578 1.69618 28.005 5.6656 28.005 5.6656Z" fill="#343C5E"></path><path d="M2.79239 19.2991C2.79239 19.2991 0.292103 24.2553 4.41931 32.5945L15.3873 8.69897C15.2621 8.74412 5.49446 12.1214 2.79239 19.2991Z" fill="#343C5E"></path></g><path d="M128.601 19.8906C127.537 18.7917 126.307 17.8987 125.012 17.0997C124.893 17.0234 124.851 16.9469 124.822 16.8119C124.623 15.9247 124.703 15.0257 124.7 14.1327C124.689 12.2936 124.706 10.4547 124.689 8.6217C124.671 7.26435 123.627 6.23033 122.258 6.15996C122.175 6.15409 122.092 6.15409 122.009 6.15409C117.391 6.15409 112.777 6.15409 108.162 6.15996C107.676 6.15996 107.225 6.01878 106.763 5.91891C105.106 5.56645 103.508 5.02589 101.902 4.50879C101.484 4.37374 101.054 4.27965 100.633 4.16797C100.527 4.16797 100.417 4.16797 100.31 4.16797C100.337 4.22687 100.349 4.29716 100.39 4.3502C100.829 4.89662 101.274 5.44295 101.718 5.98937C101.754 6.03646 101.789 6.08329 101.843 6.15383C101.742 6.15383 101.677 6.15383 101.606 6.15383C99.1812 6.15383 96.7508 6.15383 94.3203 6.15383C93.0043 6.15383 91.97 7.00572 91.7536 8.25715C91.7241 8.4217 91.7181 8.58607 91.7181 8.75666C91.7181 10.8424 91.715 12.9281 91.7211 15.0198C91.7211 15.1725 91.6795 15.2548 91.5433 15.3193C91.3474 15.4132 91.1609 15.525 90.9772 15.6481C91.2143 15.6367 91.4543 15.6191 91.7181 15.6011C91.7181 15.6715 91.7181 15.7305 91.7181 15.7833C91.7181 16.5707 91.715 17.358 91.7181 18.1392C91.7211 18.2567 91.6826 18.3332 91.5846 18.3977C91.2438 18.6328 90.9089 18.862 90.5799 19.1028C90.3251 19.2908 90.0851 19.4847 89.8391 19.6786C89.8391 19.7021 89.8391 19.7258 89.8391 19.7491C90.3991 19.8607 90.9593 19.9782 91.5196 20.0839C91.6766 20.1132 91.7211 20.1837 91.7211 20.3424C91.7181 23.2978 91.7181 26.2471 91.7181 29.2025C91.7181 31.5583 91.715 33.9204 91.7181 36.282C91.7181 37.5452 92.5539 38.5558 93.7869 38.7851C93.9528 38.82 94.1307 38.8321 94.3025 38.8321C103.568 38.8321 112.833 38.8321 122.104 38.8321C123.562 38.8321 124.665 37.7859 124.688 36.3467C124.712 34.9074 124.694 33.4737 124.694 32.0402C124.694 30.3303 124.694 28.6205 124.694 26.905C124.694 26.8346 124.694 26.7701 124.694 26.6878C125.29 26.8053 125.785 27.058 126.161 27.5046C126.781 28.2271 127.391 28.9557 128.005 29.6902C128.316 30.0663 128.621 30.4482 128.936 30.8299C129.027 30.9358 129.134 31.024 129.244 31.1295C129.276 31.0884 129.297 31.0768 129.306 31.0533C129.81 29.9779 130.335 28.9263 130.812 27.8337C131.022 27.3519 131.173 26.8111 131.28 26.2886C131.416 25.6247 131.283 24.9489 131.129 24.2967C130.723 22.5812 129.816 21.1418 128.601 19.8906ZM130.024 27.0877C129.852 27.9632 129.686 28.8326 129.291 29.6611C129.232 29.5319 129.176 29.4027 129.111 29.2794C128.66 28.3983 128.079 27.6107 127.475 26.8295C126.917 26.1128 126.2 25.6192 125.423 25.1843C123.879 24.3204 122.237 23.6746 120.577 23.0692C120.548 23.0576 120.512 23.0516 120.474 23.0636C121.52 23.6277 122.566 24.1918 123.615 24.7558C123.606 24.7732 123.598 24.7967 123.589 24.8144C122.999 24.656 122.4 24.5149 121.816 24.3329C120.9 24.0624 121.179 24.1919 119.077 23.5631C115.269 22.5349 114.661 23.2165 114.661 23.2165C118.327 23.5982 119.051 24.3504 120.942 25.32C120.847 25.5663 120.758 25.8076 120.669 26.0484C120.533 26.4124 120.399 26.7767 120.254 27.1407C120.165 27.3701 120.177 27.5816 120.263 27.8108C121.019 29.7673 121.807 31.7235 122.557 33.6803C122.599 33.786 122.622 33.9093 122.631 34.0211V37.3875C122.625 37.4521 122.625 37.5285 122.596 37.5934C122.596 37.5991 122.587 37.605 122.584 37.6111C122.252 37.9985 121.837 38.0868 121.324 38.0868C115.177 38.0692 109.03 38.0812 102.886 38.0812C99.9485 38.0812 97.0114 38.0812 94.0771 38.0754C93.9289 38.0754 93.7748 38.0693 93.6326 38.0458C92.9449 37.9342 92.539 37.4525 92.4944 36.6828C92.4796 36.3538 92.4944 36.0247 92.4944 35.69C92.4944 35.6486 92.5121 35.6016 92.5329 35.5606C93.2887 34.1035 93.8756 32.5759 94.4565 31.0482C94.5008 30.9309 94.5455 30.8193 94.5811 30.6959C94.0594 31.6594 93.3184 32.4349 92.53 33.1695C92.5064 33.1636 92.4855 33.1575 92.465 33.1519C92.4975 32.6702 92.5035 32.1825 92.5716 31.7006C92.8383 29.803 93.1229 27.9054 93.4014 26.0075C93.4014 25.9958 93.3955 25.984 93.3837 25.9371C93.0933 26.8888 92.8087 27.8115 92.5271 28.7279C92.5182 28.7279 92.5064 28.7279 92.4945 28.7279C92.4945 28.6341 92.4945 28.5456 92.4945 28.4574C92.4945 26.6889 92.4916 24.9264 92.4945 23.1582C92.4945 23.0521 92.5183 22.9345 92.5655 22.8406C92.9686 21.9598 93.3837 21.084 93.7926 20.2086C93.9053 19.9736 93.8221 19.7506 93.5674 19.6916C93.1523 19.6035 92.7376 19.533 92.3226 19.4685C92.0558 19.4214 91.789 19.3979 91.4749 19.3625C91.5757 19.2979 91.6409 19.257 91.7061 19.21C93.7868 17.8408 95.6422 16.2253 97.2782 14.3508C97.3611 14.2569 97.5182 14.1628 97.4324 14.0042C97.3524 13.8575 97.1775 13.8808 97.0442 13.9102C96.5165 14.0219 95.9919 14.1452 95.4673 14.2805C95.2153 14.3393 94.9723 14.4273 94.7114 14.4801C96.5342 12.9468 98.3571 11.4131 100.201 9.86219C98.6178 8.77513 97.0497 7.69988 95.4819 6.62472C95.4877 6.60713 95.4938 6.5954 95.4996 6.57772C98.5436 7.11232 101.588 7.64115 104.676 8.17575C103.727 7.15941 102.812 6.17816 101.866 5.1676C101.943 5.18519 101.985 5.19114 102.02 5.20278C105.147 6.23689 108.268 7.27687 111.398 8.29313C114.391 9.26256 117.231 10.5551 119.821 12.347C120.868 13.0698 121.816 13.9041 122.554 14.9438C122.919 15.4608 123.206 16.0133 123.337 16.6419C123.345 16.689 123.319 16.7828 123.281 16.8065C123.026 16.9474 122.851 17.1589 122.714 17.4057C122.471 17.8581 122.35 18.3401 122.37 18.8511C122.382 19.1331 122.276 19.2801 121.985 19.2801C121.748 19.2801 121.508 19.2566 121.28 19.1976C120.977 19.1214 120.681 19.0096 120.382 18.91C120.331 18.8982 120.287 18.8807 120.236 18.8629C120.894 19.286 121.564 19.662 122.358 19.7324C122.702 19.7617 123.052 19.7381 123.331 19.4857C123.423 19.4035 123.458 19.3211 123.408 19.192C123.265 18.8159 123.366 18.4869 123.651 18.2048C123.752 18.1052 123.834 18.0873 123.971 18.1635C125.31 18.9626 126.549 19.8791 127.646 20.9838C128.286 21.6242 128.852 22.3176 129.327 23.0933C130.089 24.3323 130.302 25.6658 130.024 27.0877Z" fill="#343C5E"></path><path d="M112.302 17.4522C111.816 17.3759 111.33 17.2878 110.847 17.1881C110.729 17.1644 110.672 17.1821 110.604 17.282C110.432 17.5228 110.177 17.5992 109.893 17.5462C109.632 17.4993 109.407 17.3466 109.383 17.088C109.362 16.8296 109.211 16.8 109.027 16.753C108.968 16.7415 108.909 16.7295 108.855 16.706C108.766 16.6649 108.707 16.6944 108.642 16.7649C108.221 17.2525 108.055 17.8105 108.197 18.445C108.405 19.3792 109.306 20.0374 110.355 20.0374C110.361 20.049 110.364 20.0665 110.367 20.0845C110.672 20.0082 110.989 19.9669 111.274 19.8494C112.193 19.485 112.694 18.598 112.531 17.6872C112.507 17.546 112.46 17.4814 112.302 17.4522Z" fill="#343C5E"></path><path d="M223.938 22.4459C223.929 22.4371 223.92 22.4317 223.914 22.4229C223.123 21.5845 221.896 21.2124 219.936 21.2124C219.231 21.2124 218.278 21.261 217.343 21.3612L217.357 5.74454C217.357 4.52263 216.355 3.52954 215.123 3.52954H187.569C186.336 3.52954 185.337 4.52272 185.337 5.74454V33.0516C185.337 34.2765 186.336 35.2664 187.569 35.2664H194.966C195.113 35.4897 195.266 35.713 195.44 35.9218C197.391 38.2743 200.804 39.4705 205.586 39.4705C209.229 39.4705 212.995 38.801 215.489 38.3572L216.402 38.197C219.431 37.6763 221.082 37.0151 222.113 35.9276C222.557 35.7617 223.129 35.4671 223.354 35.0145C223.47 34.7716 223.487 34.5054 223.394 34.2591C223.319 34.0619 223.187 33.9044 223.022 33.7755C223.14 33.6125 223.239 33.4494 223.325 33.2833C223.686 33.1059 224.059 32.8509 224.226 32.5077C224.347 32.2671 224.359 31.9985 224.266 31.7521C224.168 31.4975 223.975 31.3086 223.738 31.1626C223.729 31.008 223.718 30.8563 223.698 30.7075C223.752 30.6247 223.802 30.5416 223.851 30.4584C224.402 30.2668 225.208 29.8947 225.502 29.2909C225.647 28.9991 225.664 28.6727 225.549 28.3751C225.352 27.8457 224.815 27.5423 224.249 27.3621C224.264 27.2935 224.29 27.2276 224.347 27.1705C224.472 26.9415 224.647 26.7037 224.795 26.4464C225.462 26.1973 226.348 25.7537 226.686 25.0642C226.862 24.7063 226.882 24.3056 226.744 23.9394C226.351 22.9007 224.905 22.5604 223.938 22.4459ZM223.351 26.418L219.93 26.9217L223.213 27.2822C223.47 28.0635 223.684 29.526 222.332 30.7791C222.332 30.7791 222.347 30.8136 222.37 30.8707L219.67 31.2258L222.529 31.5005C222.598 31.9469 222.58 32.5334 222.245 33.0828L219.996 33.7326L221.818 33.684C221.813 34.0362 221.469 35.5326 216.234 36.4343C210.269 37.4614 193.54 41.0619 196.133 28.0779C198.725 15.0939 212.735 9.43902 215.587 9.43902V21.9393C214.04 22.1825 212.669 22.4487 211.461 22.715C210.125 22.5345 206.94 22.1797 205.277 22.6806L209.068 23.3073C205.655 24.2347 204.174 25.0589 204.174 25.0589C208.141 23.92 212.599 23.2387 214.669 22.9583C218.189 22.5719 222.072 22.821 222.849 23.6424C224.177 25.0473 223.753 25.9685 223.351 26.418Z" fill="#343C5E"></path><path d="M321.619 11.6553C320.443 12.1978 318.406 14.7219 318.406 14.7219C318.191 14.6563 317.893 14.6196 317.55 14.6039V6.96117C317.55 5.79731 316.595 4.85387 315.415 4.85387H305.516C305.43 4.3847 305.325 3.97058 305.189 3.71381C305.189 3.71381 307.367 1.30511 307.709 0.0679542C307.709 0.0679542 307.635 -0.815329 304.294 3.78712L304.292 4.85387H289.083C287.904 4.85387 286.948 5.79739 286.948 6.96125V12.4758L285.323 13.1075C285.323 13.1075 285.142 13.7469 286.948 13.4273V20.9993C285.153 23.0566 282.55 26.0842 282.274 26.6502C281.849 27.5177 281.382 30.8596 280.835 31.5986C280.835 31.5986 281.778 32.0833 283.039 26.8101L286.948 22.8942V32.9536C286.948 34.1176 287.904 35.0609 289.083 35.0609H303.917L299.373 40.3894C294.171 42.1195 294.747 43 294.747 43C295.44 42.3946 298.768 41.6212 299.607 41.1231C300.247 40.7457 304.05 36.8589 305.794 35.0609H313.105C313.264 35.2837 313.45 35.1998 313.45 35.1998L313.48 35.0609H315.415C316.595 35.0609 317.55 34.1174 317.55 32.9535V15.765L318.48 15.6051C322.516 11.5791 321.619 11.6553 321.619 11.6553ZM308.692 5.51434C309.918 5.45401 310.492 5.40947 310.569 6.353C310.569 6.353 308.739 6.07772 307.412 6.83001C307.412 6.83001 307.465 5.57195 308.692 5.51434ZM291.669 28.0339C291.34 27.7613 291.146 27.5569 291.146 27.5569C291.048 27.3365 290.958 27.1217 290.867 26.9067C290.612 26.4665 290.44 26.0261 290.374 25.599C286.626 14.5987 295.594 11.8414 300.99 10.7537C301.091 11.4457 301.588 13.9933 303.614 16.0664L303.487 15.9694L293.99 30.2592C293.183 29.6012 292.344 28.8358 291.669 28.0339ZM296.869 32.3218C296.869 32.3218 295.544 31.5118 294.086 30.3352L305.433 17.4843C306.955 18.3833 308.984 18.9836 311.703 18.9285C311.703 18.9285 311.714 19.1118 311.729 19.0071C311.724 24.3724 311.121 35.923 296.869 32.3218ZM312.42 18.1082C302.461 18.31 301.684 9.7525 301.684 9.7525C305.892 8.46815 308.256 10.2164 309.86 11.3749C313.206 13.7993 312.42 18.1082 312.42 18.1082ZM313.668 13.0365C313.238 14.5096 314.836 12.5725 307.183 8.16667L307.268 7.95949C307.268 7.95949 310.115 7.05009 312.25 8.73269C314.125 10.2163 314.098 11.5635 313.668 13.0365ZM314.99 12.1821C315.468 10.7511 314.831 9.03425 314.831 9.03425C315.785 8.91897 315.851 9.48242 316.042 10.6802C316.228 11.8781 314.99 12.1821 314.99 12.1821Z" fill="#343C5E"></path><g clip-path="url(#clip1_1_4152)"><path d="M408.793 20.6557V6.39344C408.793 5.09872 407.714 4.05078 406.388 4.05078H379.781C378.455 4.05078 377.376 5.09872 377.376 6.39344V32.2985C377.376 33.5907 378.455 34.6414 379.781 34.6414H384.03C384.465 35.0188 384.922 35.377 385.396 35.7135C388.396 37.831 391.916 38.9493 395.588 38.9493C396.508 38.9493 397.439 38.8787 398.353 38.7375C401.414 38.2651 404.157 36.8262 406.226 34.6414H406.388C407.715 34.6414 408.793 33.5905 408.793 32.2985V30.7784C409.783 28.5117 410.106 26.0115 409.699 23.5197C409.535 22.5125 409.226 21.5517 408.793 20.6557ZM380.936 28.5472L382.028 28.604L381.421 29.5081C381.248 29.1929 381.086 28.8727 380.936 28.5472ZM386.157 34.7417C386.149 34.736 386.14 34.7308 386.132 34.7281C385.75 34.454 385.385 34.169 385.031 33.8704L386.416 33.3953L386.157 34.7417ZM391.518 37.2119L392.432 36.1803L392.906 37.5077C392.438 37.4289 391.975 37.3286 391.518 37.2119ZM398.76 37.4262L399.296 35.9632L400.227 37.0329C399.747 37.1902 399.262 37.3231 398.76 37.4262ZM405.964 33.0612L404.98 34.0684L404.517 32.5322L406.089 32.9011C406.047 32.9554 406.008 33.0097 405.964 33.0612ZM406.41 32.4777L403.792 31.8588L404.592 34.5111C403.463 35.5208 402.156 36.3133 400.728 36.8535L399.111 35.0048L398.191 37.5268C398.18 37.5294 398.169 37.5294 398.158 37.5323C397.305 37.6652 396.441 37.7304 395.588 37.7304C394.871 37.7304 394.166 37.6733 393.463 37.5837L392.616 35.2221L390.985 37.065C389.443 36.6145 387.972 35.9332 386.611 35.0347L387.068 32.654L384.604 33.498C383.461 32.4612 382.485 31.2777 381.702 29.9828L382.92 28.1638L380.707 28.0444C380.225 26.9096 379.874 25.7071 379.67 24.464C378.521 17.4279 381.186 10.4299 386.801 5.70656L388.133 4.72926H399.527L396.073 5.70656C388.17 7.93787 383.004 15.6283 384.326 23.7448C384.805 26.6819 386.433 29.2605 388.903 31.0089C390.874 32.4015 393.188 33.1369 395.599 33.1369C396.204 33.1369 396.814 33.0908 397.417 32.9961C400.912 32.4584 403.904 29.1601 403.946 25.797C403.968 24.3011 403.41 22.952 402.337 21.8935C400.957 20.5334 398.766 19.7191 396.48 19.7191C395.465 19.7191 394.49 19.8738 393.57 20.1833C393.358 20.2537 393.149 20.2919 392.962 20.2919C392.438 20.2919 392.307 20.023 392.246 19.7625C392.087 19.0622 392.995 18.1772 393.297 17.8867C393.38 17.8054 393.458 17.7267 393.525 17.6534C394.618 16.7168 395.95 16.1033 397.389 15.8808C399.931 15.4899 402.507 16.0898 404.592 17.5638C406.683 19.0405 408.058 21.2231 408.462 23.7095C408.969 26.807 408.236 29.9098 406.41 32.4777Z" fill="#343C5E"></path><path d="M396.898 16.3586C396.112 16.3586 395.476 16.9802 395.476 17.743C395.476 18.5084 396.112 19.1301 396.898 19.1301C397.684 19.1301 398.32 18.5084 398.32 17.743C398.32 16.9801 397.684 16.3586 396.898 16.3586ZM396.898 18.6416C396.391 18.6416 395.978 18.2398 395.978 17.7431C395.978 17.249 396.391 16.8473 396.898 16.8473C397.406 16.8473 397.818 17.249 397.818 17.7431C397.818 18.2397 397.406 18.6416 396.898 18.6416Z" fill="#343C5E"></path></g></g><defs><clipPath id="clip0_1_4152"><rect width="35.8391" height="35.5217" fill="white" transform="translate(0 3.73901)"></rect></clipPath><clipPath id="clip1_1_4152"><rect width="35.8391" height="34.8986" fill="white" transform="translate(375.704 4.05078)"></rect></clipPath></defs></svg>