<svg xmlns="http://www.w3.org/2000/svg" width="3348" height="1268" viewBox="0 0 3348 1268" fill="none"><path d="M3335.07 947.384C3039.84 916.943 2757.07 859.706 2504.78 768.072C2380.3 722.85 2265.57 670.645 2164.71 612.655C2068.62 557.392 1931.29 476.45 1966.22 403.405C1997.92 337.062 2154.71 329.691 2277.06 345.403C2414.35 363.031 2540.63 411.679 2637.04 464.258C2840.79 575.378 2956.38 727.729 2968.26 868.182C2981.4 1024.08 2832.42 1152.5 2556.61 1214.5C2274.81 1277.85 1935.36 1260.23 1625.13 1209.56C1064.06 1117.94 552.382 920.142 228.822 669.764C128.163 591.859 46.6816 507.907 22.0184 419.06C-3.58409 326.696 28.0391 233.189 113.933 156.318C188.058 89.9429 307.94 31.1887 467.041 16.1169C617.833 1.82558 793.275 32.9053 889.015 101.525" stroke="#E3D5F4" stroke-width="25" stroke-linecap="round"></path></svg>