<svg xmlns="http://www.w3.org/2000/svg" width="4739" height="824" viewBox="0 0 4739 824" fill="none"><path d="M496.558 580.319C497.258 585.7 498.733 591.074 501.011 596.426C510.347 618.358 535.502 638.638 573.185 657.296C611.02 676.029 662.095 693.422 724.211 709.246C848.463 740.9 1017.34 766.388 1213.85 783.647C1653.7 822.274 2165.58 815.958 2622.5 792.591C3051.75 770.636 3455 731.305 3802.48 678.432C3975.7 652.078 4146.72 621.37 4293.98 587.187C4441.18 553.02 4564.88 515.331 4643.32 474.945C4682.55 454.749 4708.2 433.073 4719.34 410.541C4724.94 399.204 4726.86 387.653 4724.96 376.073C4723.07 364.522 4717.42 353.154 4708.2 342.079C4689.84 319.996 4657.03 298.716 4610.07 278.923C4563.05 259.102 4501.55 240.655 4425.49 224.402C4326.88 203.323 4260.57 154.293 4198.74 108.574C4186.73 99.6898 4174.88 90.9306 4163 82.5258C4126.56 56.7419 4089.76 34.3125 4046.88 22.31C4003.93 10.291 3955.08 8.77972 3894.55 24.4898L3894.55 24.4905C3894.01 24.6313 3893.49 24.7981 3893.02 25.0059C3892.6 25.1915 3891.97 25.5164 3891.45 26.0883M496.558 580.319C448.956 582.295 401.037 583.999 352.875 585.424C244.368 588.635 135.898 589.938 26.2095 589.633C21.8936 589.62 18.5181 589.309 16.1436 588.794C14.9805 588.541 13.8813 588.203 13 587.721M496.558 580.319C1056.67 566.21 1550.99 482.582 1550.99 482.582C1633.84 469.546 1720.81 455.054 1797.85 439.009C1874.83 422.978 1942.12 405.351 1985.46 385.99C2001.86 378.666 2013.56 370.782 2019.12 362.449C2021.96 358.191 2023.3 353.668 2022.64 349.03C2021.98 344.427 2019.43 340.149 2015.34 336.222C2007.26 328.459 1992.49 321.403 1970.9 315.147C1949.2 308.86 1920.22 303.277 1883.33 298.704C1558.81 258.469 1131.38 311.447 918.12 358.007C775.536 389.138 662.662 427.123 589.758 467.8C553.329 488.126 526.627 509.26 511.259 530.764C500.248 541.776 496.87 568.389 496.558 580.319Z" stroke="#E3D5F4" stroke-width="25" stroke-linecap="round"></path></svg>