<svg xmlns="http://www.w3.org/2000/svg" width="27" height="29" viewBox="0 0 27 29" fill="none"><path d="M6.17706 22.5132H16.1978V20.0494H6.17706V22.5132ZM6.17706 15.9429H20.8228V13.4791H6.17706V15.9429ZM6.17706 9.37253H20.8228V6.90873H6.17706V9.37253ZM3.18268 28.6729C2.40394 28.6729 1.74477 28.3855 1.20519 27.8106C0.665605 27.2357 0.395813 26.5334 0.395813 25.7036V3.71833C0.395813 2.8886 0.665605 2.18629 1.20519 1.61138C1.74477 1.03648 2.40394 0.749023 3.18268 0.749023H23.8172C24.5959 0.749023 25.2551 1.03648 25.7947 1.61138C26.3343 2.18629 26.6041 2.8886 26.6041 3.71833V25.7036C26.6041 26.5334 26.3343 27.2357 25.7947 27.8106C25.2551 28.3855 24.5959 28.6729 23.8172 28.6729H3.18268ZM3.18268 26.2091H23.8172C23.9358 26.2091 24.0445 26.1565 24.1434 26.0512C24.2422 25.9459 24.2916 25.83 24.2916 25.7036V3.71833C24.2916 3.59196 24.2422 3.47612 24.1434 3.3708C24.0445 3.26551 23.9358 3.21286 23.8172 3.21286H3.18268C3.06408 3.21286 2.95535 3.26551 2.85651 3.3708C2.75768 3.47612 2.70827 3.59196 2.70827 3.71833V25.7036C2.70827 25.83 2.75768 25.9459 2.85651 26.0512C2.95535 26.1565 3.06408 26.2091 3.18268 26.2091Z" fill="#B18D0C"></path></svg>