<svg xmlns="http://www.w3.org/2000/svg" width="18" height="34" viewBox="0 0 18 34" fill="none"><path d="M7.53724 33.4869V29.5465C5.90398 29.18 4.49414 28.4775 3.30772 27.4389C2.12129 26.4004 1.25074 24.9342 0.696045 23.0404L4.11664 21.6659C4.57888 23.132 5.26454 24.247 6.17362 25.0106C7.0827 25.7742 8.27683 26.156 9.756 26.156C11.0195 26.156 12.0903 25.8735 12.9686 25.3084C13.8469 24.7433 14.286 23.8651 14.286 22.6739C14.286 21.6048 13.947 20.7572 13.269 20.131C12.5911 19.5048 11.0195 18.7946 8.55417 18.0005C5.90398 17.1757 4.08582 16.1906 3.09971 15.0452C2.11359 13.8998 1.62053 12.5023 1.62053 10.8529C1.62053 8.86744 2.26767 7.3249 3.56195 6.22527C4.85623 5.12565 6.18133 4.49947 7.53724 4.34674V0.498047H11.2352V4.34674C12.776 4.59111 14.0472 5.14856 15.0487 6.01909C16.0502 6.88963 16.7821 7.95108 17.2443 9.20343L13.8237 10.6696C13.4539 9.69216 12.9301 8.95907 12.2521 8.47035C11.5742 7.98162 10.6497 7.73726 9.47866 7.73726C8.12274 7.73726 7.0904 8.03508 6.38163 8.63071C5.67286 9.22634 5.31847 9.96706 5.31847 10.8529C5.31847 11.8609 5.78071 12.655 6.7052 13.2354C7.62969 13.8158 9.23213 14.4267 11.5125 15.0681C13.6388 15.679 15.249 16.6488 16.343 17.9775C17.4369 19.3063 17.9839 20.8412 17.9839 22.5822C17.9839 24.7509 17.3368 26.4004 16.0425 27.5306C14.7482 28.6607 13.1458 29.3633 11.2352 29.6382V33.4869H7.53724Z" fill="white"></path></svg>