<svg xmlns="http://www.w3.org/2000/svg" width="1819" height="1850" viewBox="0 0 1819 1850" fill="none"><path d="M-1298.19 1325.18C-1269.39 1200.81 -912.259 1068.59 -413.722 947.166C-847.08 1068.43 -1228.61 1232.91 -1245.09 1346.18C-1263.47 1347.9 -1281.89 1349.66 -1300.34 1351.46C-1300.96 1342.85 -1300.25 1334.09 -1298.19 1325.18Z" fill="#E3D5F4"></path><path d="M536.137 1483.66C127.294 1600.34 -432.997 1604.83 -716.625 1578.7C-1056.19 1547.42 -1276.72 1467.61 -1298.74 1362.9C-1280.95 1361.19 -1263.19 1359.52 -1245.46 1357.87C-1244.89 1364.46 -1242.96 1370.85 -1239.61 1377.02C-1184.48 1478.3 -942.363 1555.97 -553.756 1575.18C-369.866 1584.27 -133.912 1581.06 114.072 1551.21C335.071 1524.61 611.616 1469.95 651.8 1410.42C696.109 1344.86 432.713 1327.39 248.742 1316.19C55.6466 1304.45 -160.667 1301.39 -392.59 1306.59C-663.592 1312.69 -949.808 1330.51 -1245.46 1357.87C-1245.79 1354.04 -1245.66 1350.14 -1245.09 1346.18C-767.627 1301.5 -313.396 1283.64 72.2396 1294.34C290.723 1300.41 531.384 1311.63 649.907 1349.88C739.734 1378.88 721.875 1430.66 536.137 1483.66Z" fill="#E3D5F4"></path><path d="M858.875 590.632C1045.4 652.994 1403.71 631.718 1587.79 581.041C1823.63 516.124 1877.6 416.508 1756.33 336.099C1635.07 255.69 1373.13 185.605 1104.23 132.911C834.535 80.0553 521.538 40.7328 188.336 18.7825C-166.361 -4.58144 -563.653 -10.8909 -904.994 27.7183C-1210.01 62.2227 -1428.89 129.598 -1456.49 213.126C-1483.81 295.804 -1355.52 385.226 -1134.3 447.439C-968.875 493.96 -637.306 546.874 -385.712 506.695C-271.413 488.448 -256.451 454.255 -307.08 425.126C-373.884 386.692 -515.183 354.827 -643.812 328.759C-909.367 274.949 -1233.72 238.908 -1573.72 225.952C-1657.93 222.742 -1742.12 221.439 -1827.26 221.743C-1840.33 221.795 -1840.17 226.523 -1827.26 226.711C-1507.18 231.38 -1198.37 251.119 -919.615 290.785C-782.083 310.362 -654.481 334.128 -541.341 361.597C-433.549 387.775 -279.343 426.254 -311.111 467.373C-339.93 504.718 -508.045 515.035 -640.941 511.416C-790.064 507.357 -929.809 485.99 -1037.73 461.284C-1265.8 409.07 -1402.31 330.892 -1426.28 255.009C-1452.83 170.781 -1302.76 94.9635 -1010.94 50.1615C-712.776 4.37386 -346.146 0.295108 -8.30776 15.3588C602.672 42.594 1168.98 129.539 1537.05 252.643C1651.56 290.947 1745.92 333.311 1779.53 380.622C1814.44 429.808 1787.86 481.918 1701.56 527.167C1627.09 566.237 1502.78 603.005 1332.8 617.601C1171.69 631.44 980.444 621.602 871.968 588.148C866.146 586.346 853.29 588.758 858.875 590.632Z" fill="#E3D5F4"></path></svg>