<svg xmlns="http://www.w3.org/2000/svg" width="536" height="306" viewBox="0 0 536 306" fill="none"><g filter="url(#filter0_d_1_147)"><path d="M30.5462 153.934V153.046L33.689 148.082H34.3886V149.389H33.9447L31.6968 152.947V153.004H36.0043V153.934H30.5462ZM33.9944 155.355V153.664L34.0015 153.259V148.082H35.042V155.355H33.9944ZM40.2739 155.475C39.7128 155.473 39.2334 155.325 38.8357 155.031C38.4379 154.738 38.1337 154.311 37.923 153.75C37.7123 153.188 37.607 152.513 37.607 151.722C37.607 150.933 37.7123 150.26 37.923 149.701C38.1361 149.142 38.4415 148.716 38.8392 148.423C39.2393 148.129 39.7175 147.982 40.2739 147.982C40.8302 147.982 41.3072 148.13 41.705 148.426C42.1027 148.72 42.4069 149.146 42.6176 149.705C42.8307 150.261 42.9372 150.933 42.9372 151.722C42.9372 152.515 42.8319 153.192 42.6212 153.753C42.4105 154.312 42.1062 154.739 41.7085 155.035C41.3108 155.329 40.8326 155.475 40.2739 155.475ZM40.2739 154.527C40.7663 154.527 41.151 154.287 41.428 153.806C41.7073 153.326 41.847 152.631 41.847 151.722C41.847 151.118 41.7831 150.608 41.6553 150.191C41.5298 149.772 41.3487 149.455 41.1119 149.24C40.8776 149.022 40.5982 148.913 40.2739 148.913C39.7838 148.913 39.3991 149.154 39.1197 149.637C38.8404 150.12 38.6995 150.815 38.6972 151.722C38.6972 152.328 38.7599 152.84 38.8854 153.259C39.0132 153.676 39.1943 153.992 39.4287 154.208C39.6631 154.421 39.9448 154.527 40.2739 154.527Z" fill="black" fill-opacity="0.2"></path><path d="M33.2309 191.099C32.7432 191.099 32.3076 191.015 31.9241 190.847C31.5429 190.679 31.2411 190.446 31.0185 190.148C30.7984 189.847 30.68 189.499 30.6634 189.104H31.7785C31.7927 189.319 31.8649 189.506 31.9951 189.665C32.1277 189.821 32.3005 189.942 32.5136 190.027C32.7266 190.112 32.9634 190.155 33.2238 190.155C33.5102 190.155 33.7636 190.105 33.9837 190.006C34.2063 189.906 34.3803 189.768 34.5058 189.59C34.6312 189.41 34.694 189.203 34.694 188.969C34.694 188.725 34.6312 188.511 34.5058 188.326C34.3826 188.139 34.2015 187.992 33.9624 187.886C33.7257 187.779 33.4392 187.726 33.1031 187.726H32.4887V186.831H33.1031C33.3729 186.831 33.6097 186.782 33.8133 186.685C34.0192 186.588 34.1802 186.453 34.2962 186.281C34.4122 186.105 34.4702 185.901 34.4702 185.666C34.4702 185.441 34.4193 185.246 34.3175 185.08C34.2181 184.912 34.0761 184.781 33.8914 184.686C33.7091 184.591 33.4937 184.544 33.2451 184.544C33.0084 184.544 32.787 184.588 32.581 184.675C32.3774 184.761 32.2117 184.884 32.0839 185.045C31.956 185.203 31.8874 185.394 31.8779 185.616H30.8161C30.828 185.223 30.944 184.878 31.1641 184.58C31.3867 184.281 31.6802 184.048 32.0448 183.88C32.4094 183.712 32.8142 183.628 33.2593 183.628C33.7257 183.628 34.1281 183.719 34.4667 183.901C34.8076 184.081 35.0704 184.321 35.255 184.622C35.4421 184.923 35.5344 185.252 35.532 185.609C35.5344 186.017 35.4208 186.362 35.1911 186.646C34.9638 186.93 34.6608 187.121 34.282 187.218V187.275C34.765 187.348 35.139 187.54 35.4042 187.85C35.6717 188.16 35.8043 188.545 35.8019 189.004C35.8043 189.404 35.693 189.763 35.4681 190.08C35.2456 190.397 34.9414 190.647 34.5555 190.83C34.1696 191.009 33.7281 191.099 33.2309 191.099ZM40.1762 191.121C39.6151 191.118 39.1357 190.97 38.738 190.677C38.3403 190.383 38.0361 189.956 37.8254 189.395C37.6147 188.834 37.5093 188.158 37.5093 187.367C37.5093 186.579 37.6147 185.905 37.8254 185.347C38.0384 184.788 38.3438 184.362 38.7415 184.068C39.1416 183.775 39.6199 183.628 40.1762 183.628C40.7326 183.628 41.2096 183.776 41.6073 184.072C42.005 184.365 42.3093 184.791 42.52 185.35C42.733 185.906 42.8396 186.579 42.8396 187.367C42.8396 188.16 42.7342 188.837 42.5235 189.398C42.3128 189.957 42.0086 190.384 41.6109 190.68C41.2131 190.974 40.7349 191.121 40.1762 191.121ZM40.1762 190.173C40.6686 190.173 41.0533 189.932 41.3303 189.452C41.6097 188.971 41.7494 188.276 41.7494 187.367C41.7494 186.763 41.6854 186.253 41.5576 185.837C41.4321 185.418 41.251 185.1 41.0143 184.885C40.7799 184.667 40.5005 184.558 40.1762 184.558C39.6861 184.558 39.3014 184.8 39.0221 185.283C38.7427 185.766 38.6019 186.46 38.5995 187.367C38.5995 187.973 38.6622 188.486 38.7877 188.905C38.9156 189.321 39.0967 189.638 39.331 189.853C39.5654 190.066 39.8471 190.173 40.1762 190.173Z" fill="black" fill-opacity="0.2"></path><path d="M30.6989 227V226.205L33.1599 223.655C33.4227 223.378 33.6393 223.135 33.8097 222.927C33.9826 222.716 34.1116 222.516 34.1968 222.327C34.282 222.137 34.3246 221.936 34.3246 221.723C34.3246 221.482 34.2678 221.273 34.1542 221.098C34.0406 220.92 33.8855 220.784 33.689 220.69C33.4925 220.593 33.2711 220.544 33.0249 220.544C32.7645 220.544 32.5372 220.597 32.3431 220.704C32.149 220.81 31.9998 220.961 31.8957 221.155C31.7915 221.349 31.7394 221.576 31.7394 221.837H30.6918C30.6918 221.394 30.7936 221.007 30.9972 220.675C31.2008 220.344 31.4802 220.087 31.8353 219.905C32.1904 219.72 32.5941 219.628 33.0462 219.628C33.5031 219.628 33.9056 219.719 34.2536 219.901C34.604 220.081 34.8774 220.327 35.0739 220.64C35.2704 220.95 35.3687 221.3 35.3687 221.691C35.3687 221.961 35.3178 222.225 35.216 222.483C35.1165 222.741 34.9425 223.029 34.694 223.346C34.4454 223.661 34.0997 224.043 33.657 224.493L32.2117 226.006V226.059H35.4859V227H30.6989ZM39.8637 227.121C39.3026 227.118 38.8232 226.97 38.4255 226.677C38.0278 226.383 37.7236 225.956 37.5129 225.395C37.3022 224.834 37.1968 224.158 37.1968 223.367C37.1968 222.579 37.3022 221.905 37.5129 221.347C37.7259 220.788 38.0313 220.362 38.429 220.068C38.8291 219.775 39.3074 219.628 39.8637 219.628C40.4201 219.628 40.8971 219.776 41.2948 220.072C41.6925 220.365 41.9968 220.791 42.2075 221.35C42.4205 221.906 42.5271 222.579 42.5271 223.367C42.5271 224.16 42.4217 224.837 42.211 225.398C42.0003 225.957 41.6961 226.384 41.2984 226.68C40.9006 226.974 40.4224 227.121 39.8637 227.121ZM39.8637 226.173C40.3561 226.173 40.7408 225.932 41.0178 225.452C41.2972 224.971 41.4369 224.276 41.4369 223.367C41.4369 222.763 41.3729 222.253 41.2451 221.837C41.1196 221.418 40.9385 221.1 40.7018 220.885C40.4674 220.667 40.188 220.558 39.8637 220.558C39.3736 220.558 38.9889 220.8 38.7096 221.283C38.4302 221.766 38.2894 222.46 38.287 223.367C38.287 223.973 38.3497 224.486 38.4752 224.905C38.6031 225.321 38.7842 225.638 39.0185 225.853C39.2529 226.066 39.5346 226.173 39.8637 226.173Z" fill="black" fill-opacity="0.2"></path><path d="M33.4582 255.727V263H32.3573V256.828H32.3147L30.5746 257.964V256.913L32.3893 255.727H33.4582ZM38.4575 263.121C37.8964 263.118 37.417 262.97 37.0192 262.677C36.6215 262.383 36.3173 261.956 36.1066 261.395C35.8959 260.834 35.7906 260.158 35.7906 259.367C35.7906 258.579 35.8959 257.905 36.1066 257.347C36.3197 256.788 36.6251 256.362 37.0228 256.068C37.4229 255.775 37.9011 255.628 38.4575 255.628C39.0138 255.628 39.4908 255.776 39.8886 256.072C40.2863 256.365 40.5905 256.791 40.8012 257.35C41.0143 257.906 41.1208 258.579 41.1208 259.367C41.1208 260.16 41.0155 260.837 40.8048 261.398C40.5941 261.957 40.2898 262.384 39.8921 262.68C39.4944 262.974 39.0162 263.121 38.4575 263.121ZM38.4575 262.173C38.9499 262.173 39.3346 261.932 39.6116 261.452C39.8909 260.971 40.0306 260.276 40.0306 259.367C40.0306 258.763 39.9667 258.253 39.8388 257.837C39.7134 257.418 39.5323 257.1 39.2955 256.885C39.0611 256.667 38.7818 256.558 38.4575 256.558C37.9674 256.558 37.5827 256.8 37.3033 257.283C37.024 257.766 36.8831 258.46 36.8808 259.367C36.8808 259.973 36.9435 260.486 37.069 260.905C37.1968 261.321 37.3779 261.638 37.6123 261.853C37.8467 262.066 38.1284 262.173 38.4575 262.173Z" fill="black" fill-opacity="0.2"></path><path d="M38.2309 299.121C37.6698 299.118 37.1904 298.97 36.7927 298.677C36.395 298.383 36.0907 297.956 35.88 297.395C35.6693 296.834 35.564 296.158 35.564 295.367C35.564 294.579 35.6693 293.905 35.88 293.347C36.0931 292.788 36.3985 292.362 36.7962 292.068C37.1963 291.775 37.6745 291.628 38.2309 291.628C38.7872 291.628 39.2643 291.776 39.662 292.072C40.0597 292.365 40.3639 292.791 40.5746 293.35C40.7877 293.906 40.8942 294.579 40.8942 295.367C40.8942 296.16 40.7889 296.837 40.5782 297.398C40.3675 297.957 40.0633 298.384 39.6656 298.68C39.2678 298.974 38.7896 299.121 38.2309 299.121ZM38.2309 298.173C38.7233 298.173 39.108 297.932 39.385 297.452C39.6644 296.971 39.804 296.276 39.804 295.367C39.804 294.763 39.7401 294.253 39.6123 293.837C39.4868 293.418 39.3057 293.1 39.069 292.885C38.8346 292.667 38.5552 292.558 38.2309 292.558C37.7408 292.558 37.3561 292.8 37.0768 293.283C36.7974 293.766 36.6566 294.46 36.6542 295.367C36.6542 295.973 36.7169 296.486 36.8424 296.905C36.9702 297.321 37.1513 297.638 37.3857 297.853C37.6201 298.066 37.9018 298.173 38.2309 298.173Z" fill="black" fill-opacity="0.2"></path></g><g filter="url(#filter1_d_1_147)"><rect x="225" y="189" width="56" height="24" rx="4" fill="white"></rect><path d="M236.846 207.56V206.104C235.893 206.009 235.182 205.727 234.714 205.259C234.246 204.791 233.982 204.215 233.921 203.53H235.481C235.551 203.885 235.728 204.18 236.014 204.414C236.3 204.648 236.794 204.765 237.496 204.765C238.224 204.765 238.74 204.648 239.043 204.414C239.355 204.171 239.511 203.877 239.511 203.53C239.511 203.244 239.425 203.01 239.251 202.828C239.078 202.646 238.809 202.49 238.445 202.36C238.09 202.221 237.635 202.096 237.08 201.983C236.456 201.844 235.928 201.671 235.494 201.463C235.061 201.246 234.732 200.96 234.506 200.605C234.29 200.25 234.181 199.795 234.181 199.24C234.181 198.633 234.407 198.1 234.857 197.641C235.308 197.182 235.971 196.9 236.846 196.796V195.6H238.146V196.796C238.987 196.891 239.624 197.164 240.057 197.615C240.499 198.057 240.751 198.599 240.811 199.24H239.251C239.182 198.911 239.004 198.646 238.718 198.447C238.441 198.239 238.034 198.135 237.496 198.135C236.872 198.135 236.422 198.243 236.144 198.46C235.876 198.677 235.741 198.937 235.741 199.24C235.741 199.656 235.915 199.968 236.261 200.176C236.608 200.384 237.141 200.562 237.86 200.709C238.398 200.822 238.866 200.956 239.264 201.112C239.663 201.259 239.997 201.441 240.265 201.658C240.534 201.866 240.733 202.126 240.863 202.438C241.002 202.741 241.071 203.105 241.071 203.53C241.071 204.206 240.829 204.782 240.343 205.259C239.858 205.736 239.126 206.017 238.146 206.104V207.56H236.846ZM243.416 206L246.588 198.252H241.986V196.9H248.226V198.122L245.106 206H243.416ZM252.778 206.143C252.302 206.143 251.855 206.069 251.439 205.922C251.032 205.766 250.672 205.515 250.36 205.168C250.057 204.813 249.819 204.332 249.645 203.725C249.481 203.118 249.398 202.36 249.398 201.45V201.19C249.398 200.349 249.481 199.647 249.645 199.084C249.819 198.512 250.057 198.057 250.36 197.719C250.672 197.372 251.032 197.125 251.439 196.978C251.855 196.831 252.302 196.757 252.778 196.757C253.255 196.757 253.697 196.831 254.104 196.978C254.52 197.125 254.88 197.372 255.183 197.719C255.495 198.057 255.734 198.512 255.898 199.084C256.072 199.647 256.158 200.349 256.158 201.19V201.45C256.158 202.36 256.072 203.118 255.898 203.725C255.734 204.332 255.495 204.813 255.183 205.168C254.88 205.515 254.52 205.766 254.104 205.922C253.697 206.069 253.255 206.143 252.778 206.143ZM252.778 204.791C253.021 204.791 253.251 204.743 253.467 204.648C253.684 204.553 253.875 204.384 254.039 204.141C254.213 203.89 254.347 203.547 254.442 203.114C254.546 202.681 254.598 202.126 254.598 201.45V201.19C254.598 200.375 254.512 199.747 254.338 199.305C254.174 198.854 253.953 198.542 253.675 198.369C253.398 198.196 253.099 198.109 252.778 198.109C252.458 198.109 252.159 198.196 251.881 198.369C251.604 198.542 251.379 198.854 251.205 199.305C251.041 199.747 250.958 200.375 250.958 201.19V201.45C250.958 202.126 251.006 202.681 251.101 203.114C251.205 203.547 251.34 203.89 251.504 204.141C251.678 204.384 251.873 204.553 252.089 204.648C252.306 204.743 252.536 204.791 252.778 204.791ZM257.327 206V204.778L260.72 201.84C261.093 201.511 261.392 201.229 261.617 200.995C261.842 200.752 262.007 200.527 262.111 200.319C262.215 200.102 262.267 199.873 262.267 199.63C262.267 199.188 262.133 198.828 261.864 198.551C261.604 198.274 261.24 198.135 260.772 198.135C260.217 198.135 259.784 198.287 259.472 198.59C259.169 198.885 259.017 199.34 259.017 199.955H257.457C257.457 199.314 257.591 198.755 257.86 198.278C258.137 197.793 258.523 197.42 259.017 197.16C259.511 196.891 260.096 196.757 260.772 196.757C261.431 196.757 261.985 196.883 262.436 197.134C262.895 197.377 263.242 197.715 263.476 198.148C263.71 198.581 263.827 199.075 263.827 199.63C263.827 200.037 263.74 200.423 263.567 200.787C263.394 201.142 263.155 201.485 262.852 201.814C262.557 202.135 262.211 202.451 261.812 202.763L259.498 204.648H263.957V206H257.327ZM268.635 206.143C268.158 206.143 267.712 206.069 267.296 205.922C266.889 205.766 266.529 205.515 266.217 205.168C265.914 204.813 265.675 204.332 265.502 203.725C265.337 203.118 265.255 202.36 265.255 201.45V201.19C265.255 200.349 265.337 199.647 265.502 199.084C265.675 198.512 265.914 198.057 266.217 197.719C266.529 197.372 266.889 197.125 267.296 196.978C267.712 196.831 268.158 196.757 268.635 196.757C269.112 196.757 269.554 196.831 269.961 196.978C270.377 197.125 270.737 197.372 271.04 197.719C271.352 198.057 271.59 198.512 271.755 199.084C271.928 199.647 272.015 200.349 272.015 201.19V201.45C272.015 202.36 271.928 203.118 271.755 203.725C271.59 204.332 271.352 204.813 271.04 205.168C270.737 205.515 270.377 205.766 269.961 205.922C269.554 206.069 269.112 206.143 268.635 206.143ZM268.635 204.791C268.878 204.791 269.107 204.743 269.324 204.648C269.541 204.553 269.731 204.384 269.896 204.141C270.069 203.89 270.204 203.547 270.299 203.114C270.403 202.681 270.455 202.126 270.455 201.45V201.19C270.455 200.375 270.368 199.747 270.195 199.305C270.03 198.854 269.809 198.542 269.532 198.369C269.255 198.196 268.956 198.109 268.635 198.109C268.314 198.109 268.015 198.196 267.738 198.369C267.461 198.542 267.235 198.854 267.062 199.305C266.897 199.747 266.815 200.375 266.815 201.19V201.45C266.815 202.126 266.863 202.681 266.958 203.114C267.062 203.547 267.196 203.89 267.361 204.141C267.534 204.384 267.729 204.553 267.946 204.648C268.163 204.743 268.392 204.791 268.635 204.791Z" fill="black"></path><path fill-rule="evenodd" clip-rule="evenodd" d="M257 213H249L253 217L257 213Z" fill="white"></path></g><path d="M81.1554 253C70.5776 253 70.5776 241 59.9998 241V293C59.9998 297.418 63.5816 301 67.9998 301H528C532.418 301 536 297.432 536 293.014V219.5C522.778 219.5 525.422 233 514.844 233C504.267 233 504.267 241 493.689 241C483.111 241 483.111 233 472.533 233C461.955 233 460.633 247 451.378 247C442.122 247 440.8 225 430.222 225C419.644 225 419.644 219 409.067 219C398.489 219 387.911 229 377.333 229C366.755 229 366.755 223 356.178 223C345.6 223 342.464 228.245 335.022 233C324.92 239.455 324.444 253 313.867 253C303.289 253 303.289 241 292.711 241C282.133 241 282.133 231 271.555 231C260.978 231 260.978 229 250.4 229C239.822 229 239.822 246.5 229.244 246.5C218.667 246.5 218.666 235 208.089 235C197.511 235 197.511 253 186.933 253C176.355 253 176.355 249.5 165.778 249.5C155.2 249.5 155.2 247 144.622 247C134.044 247 134.044 257 123.467 257C112.889 257 112.889 267 102.311 267C91.7332 267 91.7332 253 81.1554 253Z" fill="url(#paint0_linear_1_147)"></path><path d="M59.9998 241C70.5776 241 70.5776 253 81.1554 253C91.7332 253 91.7332 267 102.311 267C112.889 267 112.889 257 123.467 257C134.044 257 134.044 247 144.622 247C155.2 247 155.2 249.5 165.778 249.5C176.355 249.5 176.355 253 186.933 253C197.511 253 197.511 235 208.089 235C218.666 235 218.667 246.5 229.244 246.5C239.822 246.5 239.822 229 250.4 229C260.978 229 260.978 231 271.555 231C282.133 231 282.133 241 292.711 241C303.289 241 303.289 253 313.867 253C324.444 253 324.92 239.455 335.022 233C342.464 228.245 345.6 223 356.178 223C366.755 223 366.755 229 377.333 229C387.911 229 398.489 219 409.067 219C419.644 219 419.644 225 430.222 225C440.8 225 442.122 247 451.378 247C460.633 247 461.955 233 472.533 233C483.111 233 483.111 241 493.689 241C504.267 241 504.267 233 514.844 233C525.422 233 522.778 219.5 536 219.5" stroke="#330582" stroke-width="2"></path><circle cx="251.999" cy="230" r="4" fill="#330582" stroke="white" stroke-width="3"></circle><path d="M25.8783 33V22.0909H29.7668C30.612 22.0909 31.3134 22.2365 31.8709 22.5277C32.432 22.8189 32.851 23.2219 33.128 23.7369C33.405 24.2482 33.5435 24.8395 33.5435 25.5107C33.5435 26.1783 33.4032 26.766 33.1227 27.2738C32.8457 27.7781 32.4266 28.1705 31.8656 28.451C31.308 28.7315 30.6067 28.8718 29.7615 28.8718H26.8158V27.4549H29.6124C30.145 27.4549 30.5783 27.3786 30.9121 27.2259C31.2494 27.0732 31.4962 26.8512 31.6525 26.56C31.8087 26.2688 31.8869 25.919 31.8869 25.5107C31.8869 25.0987 31.807 24.7418 31.6472 24.44C31.4909 24.1381 31.2441 23.9073 30.9068 23.7475C30.573 23.5842 30.1344 23.5025 29.5911 23.5025H27.5243V33H25.8783ZM31.2636 28.0781L33.959 33H32.084L29.4419 28.0781H31.2636ZM38.8422 33.1651C38.0361 33.1651 37.3419 32.9929 36.7595 32.6484C36.1806 32.3004 35.7332 31.8121 35.4171 31.1836C35.1046 30.5515 34.9484 29.8111 34.9484 28.9624C34.9484 28.1243 35.1046 27.3857 35.4171 26.7464C35.7332 26.1072 36.1735 25.6083 36.7382 25.2496C37.3063 24.891 37.9704 24.7116 38.7304 24.7116C39.192 24.7116 39.6394 24.788 40.0727 24.9407C40.5059 25.0934 40.8948 25.3331 41.2392 25.6598C41.5837 25.9865 41.8554 26.4109 42.0542 26.9329C42.2531 27.4513 42.3525 28.0817 42.3525 28.8239V29.3885H35.8486V28.1953H40.7918C40.7918 27.7763 40.7066 27.4052 40.5361 27.082C40.3657 26.7553 40.126 26.4979 39.817 26.3097C39.5116 26.1214 39.1529 26.0273 38.741 26.0273C38.2936 26.0273 37.9029 26.1374 37.5691 26.3576C37.2389 26.5742 36.9832 26.8583 36.8021 27.2099C36.6245 27.5579 36.5358 27.9361 36.5358 28.3445V29.2766C36.5358 29.8235 36.6316 30.2887 36.8234 30.6722C37.0187 31.0558 37.2904 31.3487 37.6384 31.5511C37.9864 31.75 38.393 31.8494 38.8582 31.8494C39.16 31.8494 39.4353 31.8068 39.6838 31.7216C39.9324 31.6328 40.1473 31.5014 40.3284 31.3274C40.5095 31.1534 40.648 30.9386 40.7438 30.6829L42.2513 30.9545C42.1306 31.3984 41.9139 31.7873 41.6014 32.1211C41.2925 32.4513 40.9037 32.7088 40.4349 32.8935C39.9697 33.0746 39.4388 33.1651 38.8422 33.1651ZM50.8846 24.8182L47.9176 33H46.213L43.2407 24.8182H44.9506L47.0227 31.1143H47.1079L49.1747 24.8182H50.8846ZM55.6293 33.1651C54.8232 33.1651 54.129 32.9929 53.5466 32.6484C52.9677 32.3004 52.5203 31.8121 52.2043 31.1836C51.8918 30.5515 51.7355 29.8111 51.7355 28.9624C51.7355 28.1243 51.8918 27.3857 52.2043 26.7464C52.5203 26.1072 52.9606 25.6083 53.5253 25.2496C54.0935 24.891 54.7575 24.7116 55.5175 24.7116C55.9791 24.7116 56.4266 24.788 56.8598 24.9407C57.293 25.0934 57.6819 25.3331 58.0263 25.6598C58.3708 25.9865 58.6425 26.4109 58.8413 26.9329C59.0402 27.4513 59.1396 28.0817 59.1396 28.8239V29.3885H52.6357V28.1953H57.5789C57.5789 27.7763 57.4937 27.4052 57.3232 27.082C57.1528 26.7553 56.9131 26.4979 56.6041 26.3097C56.2987 26.1214 55.94 26.0273 55.5281 26.0273C55.0807 26.0273 54.69 26.1374 54.3562 26.3576C54.026 26.5742 53.7703 26.8583 53.5892 27.2099C53.4116 27.5579 53.3229 27.9361 53.3229 28.3445V29.2766C53.3229 29.8235 53.4187 30.2887 53.6105 30.6722C53.8058 31.0558 54.0775 31.3487 54.4255 31.5511C54.7735 31.75 55.1801 31.8494 55.6453 31.8494C55.9472 31.8494 56.2224 31.8068 56.4709 31.7216C56.7195 31.6328 56.9344 31.5014 57.1155 31.3274C57.2966 31.1534 57.4351 30.9386 57.531 30.6829L59.0384 30.9545C58.9177 31.3984 58.7011 31.7873 58.3886 32.1211C58.0796 32.4513 57.6908 32.7088 57.222 32.8935C56.7568 33.0746 56.2259 33.1651 55.6293 33.1651ZM62.4994 28.142V33H60.9068V24.8182H62.4355V26.1499H62.5367C62.7249 25.7166 63.0197 25.3686 63.421 25.1058C63.8258 24.843 64.3354 24.7116 64.9497 24.7116C65.5073 24.7116 65.9955 24.8288 66.4146 25.0632C66.8336 25.294 67.1585 25.6385 67.3894 26.0966C67.6202 26.5547 67.7356 27.1211 67.7356 27.7958V33H66.1429V27.9876C66.1429 27.3945 65.9884 26.9311 65.6795 26.5973C65.3705 26.2599 64.9462 26.0913 64.4064 26.0913C64.0371 26.0913 63.7086 26.1712 63.421 26.331C63.1369 26.4908 62.9114 26.7251 62.7445 27.0341C62.5811 27.3395 62.4994 27.7088 62.4994 28.142ZM75.0545 29.6069V24.8182H76.6525V33H75.0864V31.5831H75.0012C74.813 32.0199 74.5112 32.3839 74.0957 32.6751C73.6837 32.9627 73.1706 33.1065 72.5563 33.1065C72.0307 33.1065 71.5655 32.9911 71.1607 32.7603C70.7594 32.5259 70.4433 32.1797 70.2125 31.7216C69.9852 31.2635 69.8716 30.6971 69.8716 30.0224V24.8182H71.4643V29.8306C71.4643 30.3881 71.6188 30.832 71.9277 31.1623C72.2367 31.4925 72.6379 31.6577 73.1315 31.6577C73.4298 31.6577 73.7264 31.5831 74.0211 31.4339C74.3194 31.2848 74.5662 31.0593 74.7615 30.7575C74.9604 30.4556 75.058 30.0721 75.0545 29.6069ZM82.3188 33.1651C81.5127 33.1651 80.8184 32.9929 80.236 32.6484C79.6572 32.3004 79.2098 31.8121 78.8937 31.1836C78.5812 30.5515 78.425 29.8111 78.425 28.9624C78.425 28.1243 78.5812 27.3857 78.8937 26.7464C79.2098 26.1072 79.6501 25.6083 80.2147 25.2496C80.7829 24.891 81.447 24.7116 82.2069 24.7116C82.6686 24.7116 83.116 24.788 83.5492 24.9407C83.9825 25.0934 84.3713 25.3331 84.7158 25.6598C85.0603 25.9865 85.3319 26.4109 85.5308 26.9329C85.7296 27.4513 85.8291 28.0817 85.8291 28.8239V29.3885H79.3252V28.1953H84.2684C84.2684 27.7763 84.1831 27.4052 84.0127 27.082C83.8422 26.7553 83.6025 26.4979 83.2936 26.3097C82.9882 26.1214 82.6295 26.0273 82.2176 26.0273C81.7701 26.0273 81.3795 26.1374 81.0457 26.3576C80.7154 26.5742 80.4598 26.8583 80.2787 27.2099C80.1011 27.5579 80.0123 27.9361 80.0123 28.3445V29.2766C80.0123 29.8235 80.1082 30.2887 80.3 30.6722C80.4953 31.0558 80.7669 31.3487 81.1149 31.5511C81.463 31.75 81.8696 31.8494 82.3348 31.8494C82.6366 31.8494 82.9118 31.8068 83.1604 31.7216C83.409 31.6328 83.6238 31.5014 83.8049 31.3274C83.986 31.1534 84.1245 30.9386 84.2204 30.6829L85.7279 30.9545C85.6071 31.3984 85.3905 31.7873 85.078 32.1211C84.7691 32.4513 84.3802 32.7088 83.9115 32.8935C83.4463 33.0746 82.9154 33.1651 82.3188 33.1651Z" fill="#292929"></path><rect x="445.48" y="17" width="74.2467" height="20" rx="10" fill="white"></rect><path d="M454.505 23.1406V21.8182H462.385V23.1406H459.208V32H457.677V23.1406H454.505ZM466.116 32.1541C465.4 32.1541 464.776 31.9901 464.242 31.6619C463.708 31.3338 463.294 30.8748 462.999 30.2848C462.704 29.6948 462.557 29.0054 462.557 28.2166C462.557 27.4245 462.704 26.7318 462.999 26.1385C463.294 25.5452 463.708 25.0845 464.242 24.7564C464.776 24.4283 465.4 24.2642 466.116 24.2642C466.832 24.2642 467.457 24.4283 467.991 24.7564C468.524 25.0845 468.939 25.5452 469.233 26.1385C469.528 26.7318 469.676 27.4245 469.676 28.2166C469.676 29.0054 469.528 29.6948 469.233 30.2848C468.939 30.8748 468.524 31.3338 467.991 31.6619C467.457 31.9901 466.832 32.1541 466.116 32.1541ZM466.121 30.9062C466.585 30.9062 466.97 30.7836 467.275 30.5384C467.58 30.2931 467.805 29.9666 467.951 29.5589C468.1 29.1513 468.175 28.7022 468.175 28.2116C468.175 27.7244 468.1 27.277 467.951 26.8693C467.805 26.4583 467.58 26.1286 467.275 25.88C466.97 25.6314 466.585 25.5071 466.121 25.5071C465.654 25.5071 465.266 25.6314 464.958 25.88C464.653 26.1286 464.426 26.4583 464.277 26.8693C464.131 27.277 464.058 27.7244 464.058 28.2116C464.058 28.7022 464.131 29.1513 464.277 29.5589C464.426 29.9666 464.653 30.2931 464.958 30.5384C465.266 30.7836 465.654 30.9062 466.121 30.9062ZM474.194 32.1491C473.577 32.1491 473.027 31.9917 472.543 31.6768C472.063 31.3587 471.685 30.9062 471.41 30.3196C471.138 29.7296 471.002 29.022 471.002 28.1967C471.002 27.3714 471.14 26.6655 471.415 26.0788C471.693 25.4922 472.074 25.0431 472.558 24.7315C473.042 24.42 473.591 24.2642 474.204 24.2642C474.678 24.2642 475.059 24.3438 475.347 24.5028C475.639 24.6586 475.864 24.8409 476.023 25.0497C476.186 25.2585 476.312 25.4425 476.401 25.6016H476.491V21.8182H477.977V32H476.526V30.8118H476.401C476.312 30.9742 476.183 31.1598 476.014 31.3686C475.848 31.5774 475.619 31.7597 475.327 31.9155C475.036 32.0713 474.658 32.1491 474.194 32.1491ZM474.522 30.8814C474.95 30.8814 475.311 30.7687 475.606 30.5433C475.904 30.3146 476.13 29.9981 476.282 29.5938C476.438 29.1894 476.516 28.7187 476.516 28.1818C476.516 27.6515 476.439 27.1875 476.287 26.7898C476.134 26.392 475.911 26.0821 475.616 25.8601C475.321 25.638 474.956 25.527 474.522 25.527C474.075 25.527 473.702 25.643 473.403 25.875C473.105 26.107 472.88 26.4235 472.727 26.8246C472.578 27.2256 472.504 27.678 472.504 28.1818C472.504 28.6922 472.58 29.1513 472.732 29.5589C472.885 29.9666 473.11 30.2898 473.408 30.5284C473.71 30.7637 474.081 30.8814 474.522 30.8814ZM482.321 32.169C481.837 32.169 481.4 32.0795 481.009 31.9006C480.618 31.7183 480.308 31.4548 480.079 31.1101C479.854 30.7654 479.741 30.3428 479.741 29.8423C479.741 29.4115 479.824 29.0568 479.99 28.7784C480.155 28.5 480.379 28.2796 480.661 28.1172C480.942 27.9548 481.257 27.8321 481.605 27.7493C481.953 27.6664 482.308 27.6035 482.669 27.5604C483.127 27.5073 483.498 27.4643 483.783 27.4311C484.068 27.3946 484.275 27.3366 484.404 27.2571C484.534 27.1776 484.598 27.0483 484.598 26.8693V26.8345C484.598 26.4003 484.476 26.0639 484.23 25.8253C483.988 25.5866 483.627 25.4673 483.146 25.4673C482.646 25.4673 482.252 25.5784 481.963 25.8004C481.678 26.0192 481.481 26.2628 481.372 26.5312L479.975 26.2131C480.14 25.7491 480.382 25.3745 480.7 25.0895C481.022 24.8011 481.392 24.5923 481.809 24.4631C482.227 24.3305 482.666 24.2642 483.127 24.2642C483.432 24.2642 483.755 24.3007 484.096 24.3736C484.441 24.4432 484.762 24.5724 485.061 24.7614C485.362 24.9503 485.609 25.2204 485.801 25.5717C485.994 25.9197 486.09 26.3722 486.09 26.929V32H484.638V30.956H484.578C484.482 31.1482 484.338 31.3371 484.146 31.5227C483.954 31.7083 483.707 31.8625 483.405 31.9851C483.103 32.1077 482.742 32.169 482.321 32.169ZM482.644 30.9759C483.055 30.9759 483.407 30.8946 483.698 30.7322C483.993 30.5698 484.217 30.3577 484.37 30.0959C484.525 29.8307 484.603 29.5473 484.603 29.2457V28.2614C484.55 28.3144 484.447 28.3641 484.295 28.4105C484.146 28.4536 483.975 28.4917 483.783 28.5249C483.591 28.5547 483.403 28.5829 483.221 28.6094C483.039 28.6326 482.886 28.6525 482.764 28.669C482.475 28.7055 482.212 28.7668 481.973 28.853C481.738 28.9392 481.549 29.0634 481.406 29.2259C481.267 29.3849 481.198 29.5971 481.198 29.8622C481.198 30.2301 481.334 30.5085 481.605 30.6974C481.877 30.883 482.223 30.9759 482.644 30.9759ZM488.736 34.8636C488.514 34.8636 488.312 34.8454 488.129 34.8089C487.947 34.7758 487.811 34.7393 487.722 34.6996L488.08 33.4815C488.351 33.5545 488.593 33.5859 488.805 33.576C489.018 33.5661 489.205 33.4865 489.367 33.3374C489.533 33.1882 489.679 32.9446 489.805 32.6065L489.989 32.0994L487.195 24.3636H488.786L490.719 30.2898H490.799L492.733 24.3636H494.329L491.182 33.0192C491.036 33.4169 490.85 33.7533 490.625 34.0284C490.4 34.3068 490.131 34.5156 489.82 34.6548C489.508 34.794 489.147 34.8636 488.736 34.8636Z" fill="black"></path><path d="M512.325 25.8571C512.325 25.7857 512.289 25.7054 512.235 25.6518L511.789 25.2054C511.735 25.1518 511.655 25.1161 511.584 25.1161C511.512 25.1161 511.432 25.1518 511.378 25.2054L507.869 28.7143L504.36 25.2054C504.307 25.1518 504.227 25.1161 504.155 25.1161C504.075 25.1161 504.003 25.1518 503.95 25.2054L503.503 25.6518C503.45 25.7054 503.414 25.7857 503.414 25.8571C503.414 25.9286 503.45 26.0089 503.503 26.0625L507.664 30.2232C507.718 30.2768 507.798 30.3125 507.869 30.3125C507.941 30.3125 508.021 30.2768 508.075 30.2232L512.235 26.0625C512.289 26.0089 512.325 25.9286 512.325 25.8571Z" fill="black"></path><rect y="49" width="536" height="1" fill="#F1F3F4"></rect><path d="M26.5724 77.7734V76.5455H33.8896V77.7734H30.9396V86H29.5178V77.7734H26.5724ZM37.3542 86.1431C36.6895 86.1431 36.1093 85.9908 35.6138 85.6861C35.1183 85.3814 34.7336 84.9551 34.4597 84.4073C34.1858 83.8595 34.0488 83.2193 34.0488 82.4869C34.0488 81.7513 34.1858 81.1081 34.4597 80.5572C34.7336 80.0063 35.1183 79.5785 35.6138 79.2738C36.1093 78.9691 36.6895 78.8168 37.3542 78.8168C38.019 78.8168 38.5991 78.9691 39.0946 79.2738C39.5901 79.5785 39.9748 80.0063 40.2488 80.5572C40.5227 81.1081 40.6596 81.7513 40.6596 82.4869C40.6596 83.2193 40.5227 83.8595 40.2488 84.4073C39.9748 84.9551 39.5901 85.3814 39.0946 85.6861C38.5991 85.9908 38.019 86.1431 37.3542 86.1431ZM37.3588 84.9844C37.7897 84.9844 38.1467 84.8705 38.4299 84.6428C38.713 84.415 38.9223 84.1119 39.0577 83.7333C39.1962 83.3548 39.2654 82.9377 39.2654 82.4822C39.2654 82.0298 39.1962 81.6143 39.0577 81.2358C38.9223 80.8542 38.713 80.5479 38.4299 80.3171C38.1467 80.0863 37.7897 79.9709 37.3588 79.9709C36.9249 79.9709 36.5648 80.0863 36.2786 80.3171C35.9954 80.5479 35.7846 80.8542 35.6461 81.2358C35.5107 81.6143 35.443 82.0298 35.443 82.4822C35.443 82.9377 35.5107 83.3548 35.6461 83.7333C35.7846 84.1119 35.9954 84.415 36.2786 84.6428C36.5648 84.8705 36.9249 84.9844 37.3588 84.9844ZM45.5104 78.9091V80.017H41.6372V78.9091H45.5104ZM42.6759 77.2102H44.0562V83.918C44.0562 84.1857 44.0962 84.3873 44.1762 84.5227C44.2562 84.6551 44.3593 84.7459 44.4855 84.7951C44.6148 84.8413 44.7548 84.8643 44.9056 84.8643C45.0164 84.8643 45.1134 84.8567 45.1965 84.8413C45.2796 84.8259 45.3442 84.8136 45.3904 84.8043L45.6396 85.9446C45.5596 85.9754 45.4458 86.0062 45.298 86.0369C45.1503 86.0708 44.9656 86.0893 44.7441 86.0923C44.3809 86.0985 44.0423 86.0339 43.7284 85.8984C43.4145 85.763 43.1606 85.5537 42.9667 85.2706C42.7728 84.9875 42.6759 84.632 42.6759 84.2042V77.2102ZM49.1009 86.157C48.6515 86.157 48.2453 86.0739 47.8821 85.9077C47.5189 85.7384 47.2312 85.4937 47.0188 85.1737C46.8095 84.8536 46.7049 84.4612 46.7049 83.9964C46.7049 83.5964 46.7818 83.267 46.9357 83.0085C47.0896 82.75 47.2973 82.5453 47.5589 82.3945C47.8205 82.2437 48.1129 82.1299 48.4361 82.0529C48.7592 81.976 49.0885 81.9175 49.424 81.8775C49.8487 81.8282 50.1934 81.7882 50.4581 81.7575C50.7228 81.7236 50.9151 81.6697 51.0352 81.5959C51.1552 81.522 51.2152 81.402 51.2152 81.2358V81.2035C51.2152 80.8003 51.1013 80.4879 50.8736 80.2663C50.6489 80.0447 50.3134 79.9339 49.8672 79.9339C49.4025 79.9339 49.0362 80.037 48.7685 80.2433C48.5038 80.4464 48.3207 80.6726 48.2191 80.9219L46.9219 80.6264C47.0758 80.1955 47.3004 79.8478 47.5959 79.5831C47.8944 79.3153 48.2376 79.1214 48.6254 79.0014C49.0131 78.8783 49.4209 78.8168 49.8487 78.8168C50.1319 78.8168 50.4319 78.8506 50.7489 78.9183C51.069 78.983 51.3675 79.103 51.6445 79.2784C51.9246 79.4538 52.1539 79.7047 52.3324 80.0309C52.5109 80.354 52.6001 80.7741 52.6001 81.2912V86H51.2521V85.0305H51.1967C51.1075 85.209 50.9736 85.3845 50.7951 85.5568C50.6166 85.7292 50.3873 85.8723 50.1072 85.9862C49.8272 86.1 49.4917 86.157 49.1009 86.157ZM49.4009 85.049C49.7826 85.049 50.1088 84.9736 50.3796 84.8228C50.6535 84.672 50.8613 84.475 51.0028 84.2319C51.1475 83.9857 51.2198 83.7225 51.2198 83.4425V82.5284C51.1706 82.5777 51.0752 82.6238 50.9336 82.6669C50.7951 82.7069 50.6366 82.7423 50.4581 82.7731C50.2796 82.8008 50.1057 82.8269 49.9364 82.8516C49.7672 82.8731 49.6256 82.8916 49.5117 82.907C49.244 82.9408 48.9993 82.9978 48.7777 83.0778C48.5592 83.1578 48.3838 83.2732 48.2514 83.424C48.1222 83.5717 48.0575 83.7687 48.0575 84.0149C48.0575 84.3565 48.1837 84.6151 48.4361 84.7905C48.6884 84.9628 49.0101 85.049 49.4009 85.049ZM55.819 76.5455V86H54.4387V76.5455H55.819ZM66.3838 79.0291C66.3345 78.5921 66.1314 78.2536 65.7744 78.0135C65.4174 77.7704 64.9681 77.6488 64.4264 77.6488C64.0386 77.6488 63.7032 77.7103 63.42 77.8335C63.1369 77.9535 62.9168 78.1197 62.7599 78.332C62.606 78.5413 62.529 78.7798 62.529 79.0476C62.529 79.2723 62.5814 79.4661 62.686 79.6293C62.7937 79.7924 62.9337 79.9293 63.1061 80.0401C63.2815 80.1478 63.4693 80.2386 63.6693 80.3125C63.8693 80.3833 64.0617 80.4418 64.2464 80.4879L65.1697 80.728C65.4713 80.8018 65.7806 80.9019 66.0976 81.0281C66.4146 81.1542 66.7085 81.3204 66.9793 81.5266C67.2501 81.7328 67.4687 81.9883 67.6349 82.293C67.8041 82.5977 67.8888 82.9624 67.8888 83.3871C67.8888 83.9226 67.7503 84.3981 67.4733 84.8136C67.1994 85.229 66.8008 85.5568 66.2776 85.7969C65.7575 86.0369 65.1281 86.157 64.3895 86.157C63.6816 86.157 63.0692 86.0446 62.5521 85.82C62.0351 85.5953 61.6304 85.2768 61.338 84.8643C61.0456 84.4489 60.884 83.9564 60.8532 83.3871H62.2844C62.3121 83.7287 62.4229 84.0134 62.6167 84.2411C62.8137 84.4658 63.0645 84.6335 63.3692 84.7443C63.677 84.852 64.014 84.9059 64.3802 84.9059C64.7834 84.9059 65.142 84.8428 65.4559 84.7166C65.7729 84.5874 66.0222 84.4089 66.2037 84.1811C66.3853 83.9503 66.4761 83.681 66.4761 83.3732C66.4761 83.0932 66.3961 82.8639 66.2361 82.6854C66.0791 82.5069 65.8652 82.3591 65.5944 82.2422C65.3266 82.1252 65.0235 82.0221 64.6849 81.9329L63.5677 81.6282C62.8106 81.422 62.2105 81.1188 61.7673 80.7188C61.3272 80.3187 61.1072 79.7893 61.1072 79.1307C61.1072 78.5859 61.2549 78.1104 61.5503 77.7042C61.8458 77.2979 62.2459 76.9825 62.7506 76.7578C63.2554 76.5301 63.8247 76.4162 64.4587 76.4162C65.0989 76.4162 65.6636 76.5285 66.153 76.7532C66.6454 76.9779 67.0332 77.2872 67.3163 77.6811C67.5995 78.072 67.7472 78.5213 67.7595 79.0291H66.3838ZM71.5462 86.157C71.0968 86.157 70.6906 86.0739 70.3274 85.9077C69.9643 85.7384 69.6765 85.4937 69.4641 85.1737C69.2549 84.8536 69.1502 84.4612 69.1502 83.9964C69.1502 83.5964 69.2272 83.267 69.381 83.0085C69.5349 82.75 69.7427 82.5453 70.0043 82.3945C70.2659 82.2437 70.5582 82.1299 70.8814 82.0529C71.2045 81.976 71.5339 81.9175 71.8693 81.8775C72.294 81.8282 72.6387 81.7882 72.9034 81.7575C73.1681 81.7236 73.3604 81.6697 73.4805 81.5959C73.6005 81.522 73.6605 81.402 73.6605 81.2358V81.2035C73.6605 80.8003 73.5466 80.4879 73.3189 80.2663C73.0942 80.0447 72.7588 79.9339 72.3125 79.9339C71.8478 79.9339 71.4815 80.037 71.2138 80.2433C70.9491 80.4464 70.766 80.6726 70.6644 80.9219L69.3672 80.6264C69.5211 80.1955 69.7457 79.8478 70.0412 79.5831C70.3397 79.3153 70.6829 79.1214 71.0707 79.0014C71.4585 78.8783 71.8662 78.8168 72.294 78.8168C72.5772 78.8168 72.8772 78.8506 73.1942 78.9183C73.5143 78.983 73.8129 79.103 74.0898 79.2784C74.3699 79.4538 74.5992 79.7047 74.7777 80.0309C74.9562 80.354 75.0455 80.7741 75.0455 81.2912V86H73.6974V85.0305H73.642C73.5528 85.209 73.4189 85.3845 73.2404 85.5568C73.0619 85.7292 72.8326 85.8723 72.5526 85.9862C72.2725 86.1 71.937 86.157 71.5462 86.157ZM71.8462 85.049C72.2279 85.049 72.5541 84.9736 72.8249 84.8228C73.0988 84.672 73.3066 84.475 73.4482 84.2319C73.5928 83.9857 73.6651 83.7225 73.6651 83.4425V82.5284C73.6159 82.5777 73.5205 82.6238 73.3789 82.6669C73.2404 82.7069 73.0819 82.7423 72.9034 82.7731C72.7249 82.8008 72.551 82.8269 72.3817 82.8516C72.2125 82.8731 72.0709 82.8916 71.957 82.907C71.6893 82.9408 71.4446 82.9978 71.223 83.0778C71.0045 83.1578 70.8291 83.2732 70.6967 83.424C70.5675 83.5717 70.5028 83.7687 70.5028 84.0149C70.5028 84.3565 70.629 84.6151 70.8814 84.7905C71.1338 84.9628 71.4554 85.049 71.8462 85.049ZM78.2643 76.5455V86H76.884V76.5455H78.2643ZM83.1774 86.1431C82.4788 86.1431 81.8771 85.9938 81.3723 85.6953C80.8707 85.3937 80.4829 84.9705 80.209 84.4258C79.9382 83.878 79.8027 83.2363 79.8027 82.5007C79.8027 81.7744 79.9382 81.1342 80.209 80.5803C80.4829 80.0263 80.8645 79.5939 81.3539 79.283C81.8463 78.9722 82.4218 78.8168 83.0804 78.8168C83.4805 78.8168 83.8683 78.8829 84.2438 79.0153C84.6193 79.1476 84.9563 79.3554 85.2548 79.6385C85.5533 79.9216 85.7888 80.2894 85.9611 80.7418C86.1335 81.1912 86.2196 81.7375 86.2196 82.3807V82.87H80.5829V81.8359H84.867C84.867 81.4728 84.7931 81.1512 84.6454 80.8711C84.4977 80.5879 84.29 80.3648 84.0222 80.2017C83.7575 80.0386 83.4467 79.957 83.0897 79.957C82.7019 79.957 82.3633 80.0524 82.074 80.2433C81.7878 80.431 81.5662 80.6772 81.4093 80.9819C81.2554 81.2835 81.1784 81.6113 81.1784 81.9652V82.7731C81.1784 83.247 81.2615 83.6502 81.4277 83.9826C81.597 84.315 81.8324 84.5689 82.1341 84.7443C82.4357 84.9167 82.7881 85.0028 83.1912 85.0028C83.4528 85.0028 83.6913 84.9659 83.9068 84.892C84.1222 84.8151 84.3084 84.7012 84.4654 84.5504C84.6223 84.3996 84.7424 84.2134 84.8255 83.9918L86.1319 84.2273C86.0273 84.612 85.8395 84.949 85.5687 85.2383C85.301 85.5245 84.964 85.7476 84.5577 85.9077C84.1545 86.0646 83.6944 86.1431 83.1774 86.1431ZM93.0647 80.6403L91.8137 80.8619C91.7613 80.7018 91.6782 80.5495 91.5644 80.4048C91.4536 80.2602 91.3028 80.1417 91.1119 80.0494C90.9211 79.957 90.6826 79.9109 90.3964 79.9109C90.0055 79.9109 89.6793 79.9986 89.4177 80.174C89.1561 80.3464 89.0253 80.5695 89.0253 80.8434C89.0253 81.0804 89.113 81.2712 89.2884 81.4158C89.4639 81.5605 89.747 81.679 90.1379 81.7713L91.2643 82.0298C91.9168 82.1806 92.403 82.413 92.7231 82.7269C93.0432 83.0408 93.2032 83.4486 93.2032 83.9503C93.2032 84.375 93.0801 84.7536 92.8339 85.0859C92.5908 85.4152 92.2507 85.6738 91.8137 85.8615C91.3797 86.0492 90.8765 86.1431 90.3041 86.1431C89.51 86.1431 88.8622 85.9738 88.3605 85.6353C87.8589 85.2937 87.5511 84.8089 87.4372 84.1811L88.7714 83.978C88.8545 84.3258 89.0253 84.5889 89.2838 84.7674C89.5423 84.9428 89.8794 85.0305 90.2948 85.0305C90.7472 85.0305 91.1089 84.9367 91.3797 84.7489C91.6505 84.5581 91.786 84.3258 91.786 84.0518C91.786 83.8303 91.7029 83.6441 91.5367 83.4933C91.3735 83.3424 91.1227 83.2286 90.7842 83.1516L89.5839 82.8885C88.9222 82.7377 88.4329 82.4976 88.1159 82.1683C87.8019 81.839 87.645 81.422 87.645 80.9173C87.645 80.4987 87.7619 80.1325 87.9958 79.8185C88.2297 79.5046 88.5529 79.2599 88.9653 79.0845C89.3777 78.906 89.8501 78.8168 90.3825 78.8168C91.1489 78.8168 91.7521 78.983 92.1922 79.3153C92.6323 79.6446 92.9231 80.0863 93.0647 80.6403Z" fill="#667085"></path><path d="M30.4 115.92V114.128C29.2267 114.011 28.352 113.664 27.776 113.088C27.2 112.512 26.8747 111.803 26.8 110.96H28.72C28.8053 111.397 29.024 111.76 29.376 112.048C29.728 112.336 30.336 112.48 31.2 112.48C32.096 112.48 32.7307 112.336 33.104 112.048C33.488 111.749 33.68 111.387 33.68 110.96C33.68 110.608 33.5733 110.32 33.36 110.096C33.1467 109.872 32.816 109.68 32.368 109.52C31.9307 109.349 31.3707 109.195 30.688 109.056C29.92 108.885 29.2693 108.672 28.736 108.416C28.2027 108.149 27.7973 107.797 27.52 107.36C27.2533 106.923 27.12 106.363 27.12 105.68C27.12 104.933 27.3973 104.277 27.952 103.712C28.5067 103.147 29.3227 102.8 30.4 102.672V101.2H32V102.672C33.0347 102.789 33.8187 103.125 34.352 103.68C34.896 104.224 35.2053 104.891 35.28 105.68H33.36C33.2747 105.275 33.056 104.949 32.704 104.704C32.3627 104.448 31.8613 104.32 31.2 104.32C30.432 104.32 29.8773 104.453 29.536 104.72C29.2053 104.987 29.04 105.307 29.04 105.68C29.04 106.192 29.2533 106.576 29.68 106.832C30.1067 107.088 30.7627 107.307 31.648 107.488C32.3093 107.627 32.8853 107.792 33.376 107.984C33.8667 108.165 34.2773 108.389 34.608 108.656C34.9387 108.912 35.184 109.232 35.344 109.616C35.5147 109.989 35.6 110.437 35.6 110.96C35.6 111.792 35.3013 112.501 34.704 113.088C34.1067 113.675 33.2053 114.021 32 114.128V115.92H30.4ZM36.9663 114V112.496L41.1423 108.88C41.6009 108.475 41.9689 108.128 42.2463 107.84C42.5236 107.541 42.7263 107.264 42.8543 107.008C42.9823 106.741 43.0463 106.459 43.0463 106.16C43.0463 105.616 42.8809 105.173 42.5503 104.832C42.2303 104.491 41.7823 104.32 41.2063 104.32C40.5236 104.32 39.9903 104.507 39.6063 104.88C39.2329 105.243 39.0463 105.803 39.0463 106.56H37.1263C37.1263 105.771 37.2916 105.083 37.6223 104.496C37.9636 103.899 38.4383 103.44 39.0463 103.12C39.6543 102.789 40.3743 102.624 41.2063 102.624C42.0169 102.624 42.6996 102.779 43.2543 103.088C43.8196 103.387 44.2463 103.803 44.5343 104.336C44.8223 104.869 44.9663 105.477 44.9663 106.16C44.9663 106.661 44.8596 107.136 44.6463 107.584C44.4329 108.021 44.1396 108.443 43.7663 108.848C43.4036 109.243 42.9769 109.632 42.4863 110.016L39.6383 112.336H45.1263V114H36.9663ZM50.8838 114.176C50.2971 114.176 49.7478 114.085 49.2358 113.904C48.7344 113.712 48.2918 113.403 47.9078 112.976C47.5344 112.539 47.2411 111.947 47.0278 111.2C46.8251 110.453 46.7238 109.52 46.7238 108.4V108.08C46.7238 107.045 46.8251 106.181 47.0278 105.488C47.2411 104.784 47.5344 104.224 47.9078 103.808C48.2918 103.381 48.7344 103.077 49.2358 102.896C49.7478 102.715 50.2971 102.624 50.8838 102.624C51.4704 102.624 52.0144 102.715 52.5158 102.896C53.0278 103.077 53.4704 103.381 53.8438 103.808C54.2278 104.224 54.5211 104.784 54.7238 105.488C54.9371 106.181 55.0438 107.045 55.0438 108.08V108.4C55.0438 109.52 54.9371 110.453 54.7238 111.2C54.5211 111.947 54.2278 112.539 53.8438 112.976C53.4704 113.403 53.0278 113.712 52.5158 113.904C52.0144 114.085 51.4704 114.176 50.8838 114.176ZM50.8838 112.512C51.1824 112.512 51.4651 112.453 51.7318 112.336C51.9984 112.219 52.2331 112.011 52.4358 111.712C52.6491 111.403 52.8144 110.981 52.9318 110.448C53.0598 109.915 53.1238 109.232 53.1238 108.4V108.08C53.1238 107.077 53.0171 106.304 52.8038 105.76C52.6011 105.205 52.3291 104.821 51.9878 104.608C51.6464 104.395 51.2784 104.288 50.8838 104.288C50.4891 104.288 50.1211 104.395 49.7798 104.608C49.4384 104.821 49.1611 105.205 48.9478 105.76C48.7451 106.304 48.6438 107.077 48.6438 108.08V108.4C48.6438 109.232 48.7024 109.915 48.8198 110.448C48.9478 110.981 49.1131 111.403 49.3158 111.712C49.5291 112.011 49.7691 112.219 50.0358 112.336C50.3024 112.453 50.5851 112.512 50.8838 112.512ZM56.7219 116.48L57.3619 114V111.984H59.4419V114L57.6819 116.48H56.7219ZM66.715 114V111.472H61.195V110.048L66.635 102.8H68.635V109.808H69.995V111.472H68.635V114H66.715ZM63.115 109.808H66.715V105.008L63.115 109.808ZM75.4388 114.176C74.7774 114.176 74.2068 114.091 73.7268 113.92C73.2574 113.749 72.8681 113.52 72.5588 113.232C72.2494 112.944 72.0148 112.619 71.8548 112.256C71.7054 111.883 71.6201 111.504 71.5988 111.12H73.5188C73.5721 111.504 73.7588 111.829 74.0788 112.096C74.4094 112.352 74.8628 112.48 75.4388 112.48C76.0894 112.48 76.5961 112.288 76.9588 111.904C77.3321 111.52 77.5188 110.96 77.5188 110.224C77.5188 109.669 77.4174 109.232 77.2148 108.912C77.0121 108.581 76.7508 108.347 76.4308 108.208C76.1108 108.059 75.7801 107.984 75.4388 107.984C74.9801 107.984 74.5961 108.064 74.2868 108.224C73.9881 108.384 73.7481 108.603 73.5668 108.88H71.8388V102.8H78.7987V104.464H73.7268V107.072C73.9721 106.837 74.2601 106.651 74.5908 106.512C74.9214 106.363 75.3374 106.288 75.8388 106.288C76.5641 106.288 77.1934 106.437 77.7268 106.736C78.2708 107.035 78.6921 107.477 78.9908 108.064C79.2894 108.64 79.4388 109.355 79.4388 110.208C79.4388 111.019 79.2681 111.723 78.9268 112.32C78.5961 112.907 78.1321 113.365 77.5348 113.696C76.9374 114.016 76.2388 114.176 75.4388 114.176ZM85.2763 114.176C83.9536 114.176 82.9136 113.76 82.1562 112.928C81.4096 112.096 81.0363 110.773 81.0363 108.96V108.64C81.0363 107.189 81.2283 106.027 81.6123 105.152C81.9963 104.267 82.5189 103.627 83.1803 103.232C83.8523 102.827 84.6043 102.624 85.4363 102.624C86.0763 102.624 86.6363 102.72 87.1163 102.912C87.6069 103.093 88.0069 103.381 88.3163 103.776C88.6363 104.16 88.8496 104.661 88.9563 105.28H87.0363C86.9189 104.939 86.7269 104.693 86.4603 104.544C86.1936 104.395 85.8523 104.32 85.4363 104.32C84.9563 104.32 84.5189 104.427 84.1243 104.64C83.7403 104.853 83.4309 105.227 83.1963 105.76C82.9723 106.283 82.8496 107.029 82.8283 108C83.1056 107.531 83.5056 107.2 84.0283 107.008C84.5616 106.805 85.0843 106.704 85.5963 106.704C86.3536 106.704 86.9989 106.843 87.5323 107.12C88.0656 107.397 88.4763 107.803 88.7643 108.336C89.0523 108.859 89.1962 109.504 89.1962 110.272V110.432C89.1962 111.168 89.0256 111.819 88.6843 112.384C88.3429 112.949 87.8736 113.392 87.2763 113.712C86.6896 114.021 86.0229 114.176 85.2763 114.176ZM85.1483 112.48C85.7883 112.48 86.3003 112.293 86.6843 111.92C87.0789 111.536 87.2763 111.04 87.2763 110.432V110.272C87.2763 109.675 87.0789 109.189 86.6843 108.816C86.3003 108.432 85.7883 108.24 85.1483 108.24C84.5083 108.24 83.9909 108.432 83.5963 108.816C83.2123 109.189 83.0203 109.675 83.0203 110.272V110.432C83.0203 111.04 83.2123 111.536 83.5963 111.92C83.9909 112.293 84.5083 112.48 85.1483 112.48Z" fill="#1F2937"></path><rect x="101" y="99.5" width="35" height="16" rx="5" fill="#1CA685" fill-opacity="0.1"></rect><path d="M109.401 108.411C109.401 108.46 109.426 108.515 109.463 108.552L109.77 108.859C109.806 108.896 109.862 108.92 109.911 108.92C109.96 108.92 110.015 108.896 110.052 108.859L112.464 106.446L114.877 108.859C114.914 108.896 114.969 108.92 115.018 108.92C115.073 108.92 115.122 108.896 115.159 108.859L115.466 108.552C115.503 108.515 115.527 108.46 115.527 108.411C115.527 108.362 115.503 108.306 115.466 108.27L112.605 105.409C112.569 105.372 112.513 105.348 112.464 105.348C112.415 105.348 112.36 105.372 112.323 105.409L109.463 108.27C109.426 108.306 109.401 108.362 109.401 108.411Z" fill="#1CA685"></path><path d="M122.604 104.227V111.5H121.287V105.509H121.244L119.543 106.596V105.388L121.351 104.227H122.604ZM127.461 111.599C126.95 111.599 126.495 111.512 126.097 111.337C125.702 111.161 125.39 110.918 125.16 110.605C124.93 110.293 124.808 109.932 124.794 109.522H126.129C126.141 109.719 126.206 109.89 126.325 110.037C126.443 110.181 126.601 110.294 126.797 110.374C126.994 110.455 127.214 110.495 127.458 110.495C127.718 110.495 127.949 110.45 128.15 110.36C128.351 110.268 128.509 110.14 128.622 109.977C128.736 109.813 128.792 109.625 128.789 109.412C128.792 109.192 128.735 108.998 128.619 108.83C128.503 108.661 128.335 108.53 128.114 108.435C127.897 108.341 127.634 108.293 127.326 108.293H126.683V107.278H127.326C127.579 107.278 127.801 107.234 127.99 107.146C128.182 107.059 128.332 106.936 128.441 106.777C128.55 106.616 128.603 106.43 128.601 106.219C128.603 106.013 128.557 105.835 128.463 105.683C128.37 105.529 128.239 105.41 128.068 105.325C127.9 105.239 127.703 105.197 127.475 105.197C127.253 105.197 127.047 105.237 126.857 105.317C126.668 105.398 126.515 105.513 126.399 105.662C126.283 105.809 126.222 105.984 126.215 106.188H124.947C124.956 105.78 125.074 105.423 125.298 105.115C125.526 104.805 125.829 104.563 126.208 104.391C126.586 104.215 127.011 104.128 127.482 104.128C127.968 104.128 128.389 104.219 128.747 104.401C129.106 104.581 129.385 104.824 129.581 105.129C129.778 105.435 129.876 105.772 129.876 106.141C129.878 106.551 129.757 106.894 129.514 107.171C129.272 107.448 128.955 107.629 128.562 107.714V107.771C129.073 107.842 129.465 108.032 129.737 108.339C130.012 108.645 130.148 109.025 130.146 109.479C130.146 109.887 130.03 110.251 129.798 110.573C129.568 110.893 129.251 111.144 128.846 111.326C128.444 111.508 127.982 111.599 127.461 111.599Z" fill="#1CA685"></path><rect x="0.5" y="0.5" width="535" height="365" rx="11.5" stroke="#E3ECF5"></rect><defs><filter id="filter0_d_1_147" x="26.9994" y="121.355" width="477" height="227" filterUnits="userSpaceOnUse" color-interpolation-filters="sRGB"><feGaussianBlur stdDeviation="1.5"></feGaussianBlur></filter><filter id="filter1_d_1_147" x="180" y="159" width="146" height="118" filterUnits="userSpaceOnUse" color-interpolation-filters="sRGB"><feGaussianBlur stdDeviation="22.5"></feGaussianBlur></filter><linearGradient id="paint0_linear_1_147" x1="298" y1="219" x2="298" y2="301" gradientUnits="userSpaceOnUse"><stop stop-color="#1C43A6" stop-opacity="0.1"></stop><stop offset="1" stop-color="#6A22C5" stop-opacity="0"></stop></linearGradient></defs></svg>