<svg xmlns="http://www.w3.org/2000/svg" width="428" height="161" viewBox="0 0 428 161" fill="none"><path d="M26.2405 46.6037H49.8524C51.5065 46.6037 52.7427 48.1222 52.4066 49.7438C50.5198 58.8478 47.476 74.0207 46.5515 80.5C45.2495 89.6259 37.4371 122.218 60.8742 122.218C79.6239 122.218 83.4433 107.443 83.0093 100.056V49.2111C83.0093 47.7711 84.1752 46.6037 85.6134 46.6037H109.051C110.489 46.6037 111.654 47.7856 111.66 49.2256C111.841 97.122 116.947 128.426 120.072 140.569C120.432 141.968 119.646 143.415 118.265 143.83L97.3003 150.127C95.8926 150.55 94.4145 149.724 94.0358 148.302L89.5196 131.344C88.2175 137.863 80.1447 150.9 58.2701 150.9C30.9268 150.9 14 130.041 14 102.663C14 81.9681 20.1998 58.8678 23.8124 48.3188C24.1676 47.2817 25.1454 46.6037 26.2405 46.6037Z" fill="#000C60"></path><path d="M259.735 148.186C256.968 87.0757 260.888 35.5251 263.476 14.95C263.638 13.6563 264.74 12.7074 266.042 12.7074H290.868C292.399 12.7074 293.6 14.0239 293.461 15.5509L289.813 55.7296C300.23 47.3859 314.118 45.3 319.761 45.3C352.052 45.3 356.653 79.1963 354.916 96.1444L351.207 145.661C351.099 147.109 349.83 148.19 348.385 148.064L323.691 145.914C322.245 145.788 321.18 144.508 321.326 143.062C322.33 133.051 324.373 112.899 326.271 94.8407C328.354 75.0244 317.591 70.0703 311.948 70.0703C292.157 70.0703 287.209 86.5839 287.209 94.8407L289.691 145.785C289.759 147.185 288.71 148.389 287.316 148.51L262.558 150.665C261.086 150.793 259.802 149.663 259.735 148.186Z" fill="#000C60"></path><path d="M408.719 147.634C400.783 113.566 403.635 73.3687 406.468 54.6065C406.696 53.0953 405.607 51.7094 404.086 51.5825L378.281 49.429C376.842 49.3089 375.578 50.3987 375.472 51.8413C371.81 101.514 373.704 135.592 375.363 148.693C375.525 149.97 376.619 150.9 377.904 150.9H406.16C407.861 150.9 409.106 149.293 408.719 147.634Z" fill="#000C60"></path><path d="M377.617 30.6507L381.725 12.1418C381.99 10.9488 383.047 10.1 384.267 10.1H411.395C413.089 10.1 414.332 11.6941 413.921 13.3398L408.756 34.024C408.447 35.2637 407.286 36.0961 406.014 35.99L379.943 33.8147C378.371 33.6835 377.275 32.1931 377.617 30.6507Z" fill="#000C60"></path><path d="M191.229 41.3889C212.69 41.3889 225.884 54.1885 230.812 62.038C231.463 63.0763 231.181 64.4106 230.238 65.1928L213.336 79.2117C212.314 80.0593 210.827 79.9912 209.792 79.1588C204.091 74.5707 196.475 72.2766 191.229 72.2766C185.426 72.2766 170.917 77.8926 170.917 94.7404C170.917 111.588 179.622 122.82 194.131 122.82C204.322 122.82 213.768 114.161 218.54 108.247C219.5 107.056 221.26 106.813 222.437 107.789L238.554 121.157C239.661 122.076 239.82 123.718 238.905 124.828C230.838 134.615 216.789 150.9 194.131 150.9C170.917 150.9 138.998 136.86 138.998 100.356C138.998 63.8527 162.212 41.3889 191.229 41.3889Z" fill="#000C60"></path></svg>