<svg xmlns="http://www.w3.org/2000/svg" width="35" height="35" viewBox="0 0 35 35" fill="none"><path d="M17.5 34.5207C15.1662 34.5207 12.964 34.0734 10.8932 33.1787C8.82249 32.284 7.01646 31.066 5.47514 29.5247C3.93386 27.9834 2.71589 26.1774 1.82122 24.1066C0.926521 22.0359 0.479172 19.8337 0.479172 17.4999C0.479172 15.1478 0.926521 12.9409 1.82122 10.8794C2.71589 8.81784 3.93386 7.01641 5.47514 5.4751C7.01646 3.93382 8.82249 2.71584 10.8932 1.82117C12.964 0.926475 15.1662 0.479126 17.5 0.479126C19.8521 0.479126 22.0589 0.926475 24.1205 1.82117C26.182 2.71584 27.9835 3.93382 29.5248 5.4751C31.0661 7.01641 32.284 8.81784 33.1787 10.8794C34.0734 12.9409 34.5208 15.1478 34.5208 17.4999C34.5208 19.8337 34.0734 22.0359 33.1787 24.1066C32.284 26.1774 31.0661 27.9834 29.5248 29.5247C27.9835 31.066 26.182 32.284 24.1205 33.1787C22.0589 34.0734 19.8521 34.5207 17.5 34.5207ZM17.5 31.7954C18.4142 30.5825 19.1837 29.3593 19.8085 28.1258C20.4333 26.8923 20.9421 25.544 21.3348 24.0808H13.6651C14.0808 25.5899 14.5954 26.9613 15.2087 28.1948C15.822 29.4283 16.5857 30.6285 17.5 31.7954ZM14.0304 31.3026C13.3436 30.3172 12.7268 29.1969 12.1801 27.9415C11.6334 26.6862 11.2085 25.3993 10.9053 24.0808H4.82732C5.77371 25.9414 7.04282 27.5046 8.63466 28.7702C10.2265 30.0359 12.0251 30.88 14.0304 31.3026ZM20.9695 31.3026C22.9748 30.88 24.7734 30.0359 26.3653 28.7702C27.9571 27.5046 29.2262 25.9414 30.1726 24.0808H24.0946C23.734 25.4108 23.2803 26.7034 22.7336 27.9588C22.1869 29.2141 21.5989 30.3287 20.9695 31.3026ZM3.70068 21.3934H10.3609C10.2483 20.7272 10.1668 20.0743 10.1163 19.4346C10.0658 18.7949 10.0405 18.15 10.0405 17.4999C10.0405 16.8499 10.0658 16.205 10.1163 15.5652C10.1668 14.9255 10.2483 14.2726 10.3609 13.6064H3.70068C3.52841 14.2152 3.39633 14.848 3.30445 15.5049C3.21257 16.1619 3.16663 16.8269 3.16663 17.4999C3.16663 18.173 3.21257 18.8379 3.30445 19.4949C3.39633 20.1518 3.52841 20.7847 3.70068 21.3934ZM13.0483 21.3934H21.9516C22.0641 20.7272 22.1457 20.0801 22.1962 19.4518C22.2468 18.8236 22.272 18.173 22.272 17.4999C22.272 16.8269 22.2468 16.1762 22.1962 15.548C22.1457 14.9198 22.0641 14.2726 21.9516 13.6064H13.0483C12.9358 14.2726 12.8542 14.9198 12.8037 15.548C12.7532 16.1762 12.7279 16.8269 12.7279 17.4999C12.7279 18.173 12.7532 18.8236 12.8037 19.4518C12.8542 20.0801 12.9358 20.7272 13.0483 21.3934ZM24.639 21.3934H31.2992C31.4715 20.7847 31.6036 20.1518 31.6955 19.4949C31.7874 18.8379 31.8333 18.173 31.8333 17.4999C31.8333 16.8269 31.7874 16.1619 31.6955 15.5049C31.6036 14.848 31.4715 14.2152 31.2992 13.6064H24.639C24.7516 14.2726 24.8331 14.9255 24.8836 15.5652C24.9342 16.205 24.9594 16.8499 24.9594 17.4999C24.9594 18.15 24.9342 18.7949 24.8836 19.4346C24.8331 20.0743 24.7516 20.7272 24.639 21.3934ZM24.0946 10.919H30.1726C29.2147 9.03545 27.9542 7.47231 26.3911 6.22961C24.828 4.98694 23.0208 4.13705 20.9695 3.67994C21.6563 4.72278 22.2673 5.86325 22.8025 7.10135C23.3378 8.33945 23.7685 9.61201 24.0946 10.919ZM13.6651 10.919H21.3348C20.9191 9.42138 20.3959 8.04144 19.7654 6.77921C19.1349 5.51701 18.3797 4.32543 17.5 3.20448C16.6202 4.32543 15.8651 5.51701 15.2345 6.77921C14.604 8.04144 14.0808 9.42138 13.6651 10.919ZM4.82732 10.919H10.9053C11.2315 9.61201 11.6622 8.33945 12.1974 7.10135C12.7326 5.86325 13.3436 4.72278 14.0304 3.67994C11.9677 4.13705 10.1576 4.98983 8.60022 6.23826C7.04284 7.48669 5.78521 9.04695 4.82732 10.919Z" fill="#5077DE"></path></svg>