<svg xmlns="http://www.w3.org/2000/svg" width="330" height="337" viewBox="0 0 330 337" fill="none"><path d="M134.604 325.039C133.038 324.21 131.28 323.843 129.51 323.573C130.359 321.45 131.194 319.316 131.707 317.107C132.016 315.785 130.226 315.001 129.464 316.146C128.034 318.284 127.043 320.695 126.105 323.092C123.587 322.756 121.25 322.564 118.788 323.412C118.327 323.569 118.089 324.287 118.629 324.547C120.655 325.523 122.704 325.833 124.863 326.164C123.871 328.475 122.786 330.944 122.995 333.367C123.071 334.243 124.25 334.981 124.956 334.196C126.81 332.135 127.312 329.362 128.254 326.799C130.116 327.223 131.996 327.688 133.869 327.664C135.232 327.643 135.916 325.734 134.604 325.039Z" fill="url(#paint0_linear_320_129)"></path><path d="M22.467 10.3817C20.1475 11.0166 17.8504 11.763 15.5636 12.5427C14.9176 9.4283 14.3625 6.20119 12.6461 3.56047C12.1234 2.76173 10.8981 3.00022 10.6598 3.90365C9.79393 7.19034 10.601 10.6929 11.3479 14.0083C11.2631 14.0393 11.1755 14.0688 11.0908 14.0998C8.40894 15.0572 5.42853 15.7295 3.86428 18.2282C3.51959 18.7799 3.95313 19.3764 4.46754 19.5536C7.03416 20.4534 9.75024 19.3016 12.2793 18.4132C12.9432 21.5777 13.7596 24.8208 15.5151 27.4083C16.5038 28.8612 18.8398 28.1777 18.8117 26.389C18.756 23.2203 17.6375 20.0876 16.6999 17.0005C19.0752 16.2564 21.452 15.5095 23.7935 14.6718C26.5071 13.6998 25.2638 9.61615 22.467 10.3817Z" fill="url(#paint1_linear_320_129)"></path><path d="M310.882 171.631C310.89 171.586 310.901 171.539 310.909 171.494C310.94 171.343 310.913 171.199 310.907 171.053C311.083 170.915 311.228 170.472 311.344 169.711C311.657 168.798 311.969 167.885 312.281 166.972C312.474 166.406 312.665 165.839 312.861 165.272C316.458 167.277 320.193 168.94 323.689 169.497C324.82 169.678 325.45 168.377 324.687 167.562C321.941 164.631 317.98 162.703 314.391 160.738C315.247 158.134 316.032 155.517 316.141 152.758C316.186 151.663 314.49 151.009 313.824 151.922C312.406 153.874 311.411 156.073 310.548 158.335C308.212 156.673 305.465 154.679 303.119 154.837C302.482 154.881 301.952 155.343 301.807 155.963C301.761 156.158 301.717 156.35 301.671 156.545C301.433 157.567 302.009 158.425 302.817 158.956C304.67 160.174 306.745 161.556 308.919 162.917C308.873 163.046 308.829 163.177 308.783 163.302C307.973 165.583 305.155 170.025 306.77 172.376C307.858 173.961 310.485 173.618 310.882 171.631Z" fill="url(#paint2_linear_320_129)"></path><defs><linearGradient id="paint0_linear_320_129" x1="118.7" y1="322.629" x2="135.068" y2="327.219" gradientUnits="userSpaceOnUse"><stop offset="0.03125" stop-color="#7B6BE6"></stop><stop offset="1" stop-color="#6200EE"></stop></linearGradient><linearGradient id="paint1_linear_320_129" x1="3.79253" y1="18.9242" x2="25.3184" y2="12.2688" gradientUnits="userSpaceOnUse"><stop offset="0.03125" stop-color="#7B6BE6"></stop><stop offset="1" stop-color="#6200EE"></stop></linearGradient><linearGradient id="paint2_linear_320_129" x1="318.155" y1="153.072" x2="307.776" y2="173.201" gradientUnits="userSpaceOnUse"><stop offset="0.03125" stop-color="#7B6BE6"></stop><stop offset="1" stop-color="#6200EE"></stop></linearGradient></defs></svg>