<svg xmlns="http://www.w3.org/2000/svg" width="1920" height="1266" viewBox="0 0 1920 1266" fill="none"><path d="M-18.7886 94.4384C-182.76 -32.4034 -516.836 -17.9985 -693.849 62.111C-920.636 164.729 -984.015 343.265 -882.8 498.655C-781.609 654.043 -548.973 800.173 -307.553 914.964C-65.4246 1030.11 218.566 1123.45 523.584 1186.4C848.281 1253.41 1214.66 1292.14 1535.4 1244.86C1822.01 1202.61 2033.45 1094.34 2070.28 943.429C2106.72 794.053 2000.25 621.695 1804.19 492.752C1657.58 396.334 1358.26 276.852 1120.26 333.137C1012.14 358.697 993.682 420.224 1036.54 476.973C1093.08 551.852 1219.38 619.81 1334.74 676.298C1572.92 792.9 1867.85 881.022 2180.37 927.985C2257.78 939.619 2335.42 947.764 2414.16 953.031C2426.24 953.83 2426.73 945.172 2414.83 943.944C2119.6 913.504 1836.83 856.267 1584.54 764.633C1460.06 719.411 1345.33 667.205 1244.47 609.216C1148.38 553.953 1011.05 473.011 1045.98 399.966C1077.68 333.622 1234.47 326.252 1356.82 341.964C1494.11 359.592 1620.39 408.24 1716.8 460.819C1920.55 571.939 2036.14 724.29 2048.02 864.743C2061.16 1020.64 1912.18 1149.07 1636.37 1211.06C1354.57 1274.42 1015.12 1256.79 704.886 1206.12C143.823 1114.5 -367.86 916.702 -691.42 666.325C-792.078 588.42 -873.56 504.468 -898.223 415.621C-923.826 323.257 -892.203 229.75 -806.308 152.879C-732.183 86.5036 -612.301 27.7494 -453.2 12.6777C-302.408 -1.61366 -126.966 29.4661 -31.2268 98.0855C-26.0898 101.782 -13.8804 98.2488 -18.7886 94.4384Z" fill="#E3D5F4"></path></svg>