<svg xmlns="http://www.w3.org/2000/svg" width="1920" height="793" viewBox="0 0 1920 793" fill="none"><path d="M2510.64 11.3936C2750.89 -50.9687 2803.1 160.659 3040.19 211.336C3343.96 276.253 3413.48 375.869 3257.27 456.278C3101.1 536.687 2763.71 606.772 2417.36 659.466C2069.99 712.322 1666.84 751.644 1237.67 773.594C780.816 796.958 269.096 803.268 -170.558 764.659C-563.424 730.154 -845.344 662.779 -880.901 579.251C-916.086 496.573 -750.85 407.151 -465.913 344.938C-252.837 298.417 174.23 245.503 498.288 285.682C645.507 303.929 664.779 338.122 599.567 367.251C513.522 405.685 331.526 437.55 165.85 463.618C-176.191 517.427 -593.962 553.469 -1031.89 566.425C-1140.36 569.635 -1248.8 570.938 -1358.45 570.633C-1375.28 570.582 -1375.08 565.854 -1358.45 565.666C-946.181 560.997 -548.429 541.258 -189.39 501.592C-12.2456 482.015 152.108 458.249 297.834 430.78C436.672 404.602 635.293 366.123 594.375 325.004C557.256 287.659 340.72 277.342 169.548 280.961C-22.5256 285.02 -202.52 306.387 -341.528 331.093C-635.287 383.307 -811.108 461.485 -841.984 537.368C-876.185 621.596 -682.89 697.413 -307.022 742.215C77.0225 788.003 549.25 792.082 984.392 777.018C1771.35 749.783 2500.76 662.838 2974.85 539.734C3122.34 501.43 3243.87 459.066 3287.17 411.755C3332.12 362.569 3297.89 310.459 3186.74 265.21C3090.82 226.14 2930.71 189.372 2711.76 174.776C2504.25 160.937 2667.22 -19.577 2527.5 13.877C2520 15.6797 2503.44 13.2676 2510.64 11.3936Z" fill="#E3D5F4"></path></svg>