<svg xmlns="http://www.w3.org/2000/svg" width="1920" height="678" viewBox="0 0 1920 678" fill="none"><path d="M-523.776 671.19C-792.055 715.813 -835.382 500.829 -1092.68 432.893C-1422.32 345.864 -1492.13 241.375 -1315.04 172.589C-1138 103.8 -762.412 58.5885 -378.133 31.3864C7.27501 4.09709 453.107 -5.60223 926.395 3.93883C1430.21 14.0978 1993.22 45.2929 2474 116.028C2903.62 179.239 3209.08 267.119 3242.62 353.067C3275.81 438.14 3088.2 515.259 2770.81 556.459C2533.46 587.265 2060.42 608.774 1706.83 544.942C1546.19 515.949 1527.28 480.42 1600.91 456.133C1698.06 424.088 1900.26 405.627 2084.14 391.755C2463.76 363.124 2925.45 357.77 3407.76 376.927C3527.23 381.671 3646.53 388.315 3767.07 396.654C3785.57 397.938 3785.03 402.64 3766.74 401.61C3313.18 376.064 2874.58 366.618 2477.21 379.892C2281.16 386.447 2098.89 398.119 1936.85 414.851C1782.48 430.799 1561.55 454.642 1603.81 498.667C1642.13 538.649 1879.5 564.807 2067.93 573.738C2279.36 583.759 2478.67 575.627 2633.14 561.16C2959.57 530.583 3158.06 465.46 3197.05 392.007C3240.25 310.471 3032.79 220.66 2622.54 148.419C2203.37 74.5961 1684.47 35.929 1205.08 19.0791C338.094 -11.4014 -469.597 21.9119 -998.998 110.009C-1163.69 137.423 -1300.13 170.789 -1350.87 214.824C-1403.56 260.607 -1369.39 315.11 -1250.2 368.402C-1147.35 414.413 -973.765 462.829 -734.028 493.435C-506.811 522.445 -697.983 690.62 -542.151 667.477C-533.787 666.228 -515.744 669.848 -523.776 671.19Z" fill="#E3D5F4"></path></svg>