<svg xmlns="http://www.w3.org/2000/svg" width="1920" height="629" viewBox="0 0 1920 629" fill="none"><path d="M432.343 38.3682C276.273 -23.9941 -23.5238 -2.71844 -177.544 47.9586C-374.874 112.876 -420.035 212.492 -318.56 292.901C-217.107 373.31 2.06506 443.395 227.056 496.089C452.708 548.945 714.595 588.267 993.387 610.217C1290.16 633.581 1622.58 639.891 1908.18 601.282C2163.39 566.777 2346.53 499.402 2369.63 415.874C2392.48 333.196 2285.15 243.774 2100.05 181.561C1961.63 135.04 1684.21 82.1261 1473.7 122.305C1378.06 140.552 1365.54 174.745 1407.91 203.874C1463.8 242.308 1582.03 274.173 1689.65 300.241C1911.84 354.051 2183.23 390.092 2467.71 403.048C2538.17 406.258 2608.62 407.561 2679.85 407.257C2690.78 407.205 2690.65 402.477 2679.85 402.289C2412.03 397.62 2153.65 377.881 1920.42 338.215C1805.34 318.638 1698.58 294.872 1603.91 267.403C1513.72 241.225 1384.7 202.746 1411.28 161.627C1435.39 124.282 1576.05 113.965 1687.25 117.584C1812.02 121.643 1928.95 143.01 2019.25 167.716C2210.08 219.93 2324.29 298.108 2344.35 373.991C2366.56 458.219 2241 534.037 1996.83 578.839C1747.35 624.626 1440.59 628.705 1157.92 613.641C646.71 586.406 172.88 499.461 -135.094 376.357C-230.905 338.053 -309.854 295.689 -337.978 248.378C-367.182 199.192 -344.944 147.082 -272.738 101.833C-210.429 62.7629 -106.419 25.9954 35.8092 11.3986C170.61 -2.43951 330.625 7.39758 421.388 40.8516C426.259 42.6542 437.016 40.2422 432.343 38.3682Z" fill="#E3D5F4"></path></svg>