<svg xmlns="http://www.w3.org/2000/svg" width="30" height="30" viewBox="0 0 30 30" fill="none"><path d="M15 14.9999C12.9833 14.9999 11.257 14.2819 9.82084 12.8458C8.38473 11.4096 7.66668 9.68325 7.66668 7.66659C7.66668 5.64992 8.38473 3.92353 9.82084 2.48742C11.257 1.05131 12.9833 0.333252 15 0.333252C17.0167 0.333252 18.7431 1.05131 20.1792 2.48742C21.6153 3.92353 22.3333 5.64992 22.3333 7.66659C22.3333 9.68325 21.6153 11.4096 20.1792 12.8458C18.7431 14.2819 17.0167 14.9999 15 14.9999ZM0.333344 29.6666V24.5333C0.333344 23.4944 0.600705 22.5395 1.13543 21.6687C1.67015 20.7978 2.38057 20.1333 3.26668 19.6749C5.16112 18.7277 7.08612 18.0173 9.04168 17.5437C10.9972 17.0701 12.9833 16.8333 15 16.8333C17.0167 16.8333 19.0028 17.0701 20.9583 17.5437C22.9139 18.0173 24.8389 18.7277 26.7333 19.6749C27.6195 20.1333 28.3299 20.7978 28.8646 21.6687C29.3993 22.5395 29.6667 23.4944 29.6667 24.5333V29.6666H0.333344ZM4.00001 25.9999H26V24.5333C26 24.1971 25.916 23.8916 25.7479 23.6166C25.5799 23.3416 25.3583 23.1277 25.0833 22.9749C23.4333 22.1499 21.7681 21.5312 20.0875 21.1187C18.407 20.7062 16.7111 20.4999 15 20.4999C13.2889 20.4999 11.5931 20.7062 9.91251 21.1187C8.23195 21.5312 6.56668 22.1499 4.91668 22.9749C4.64168 23.1277 4.42015 23.3416 4.25209 23.6166C4.08404 23.8916 4.00001 24.1971 4.00001 24.5333V25.9999ZM15 11.3333C16.0083 11.3333 16.8715 10.9742 17.5896 10.2562C18.3076 9.53811 18.6667 8.67492 18.6667 7.66659C18.6667 6.65825 18.3076 5.79506 17.5896 5.077C16.8715 4.35895 16.0083 3.99992 15 3.99992C13.9917 3.99992 13.1285 4.35895 12.4104 5.077C11.6924 5.79506 11.3333 6.65825 11.3333 7.66659C11.3333 8.67492 11.6924 9.53811 12.4104 10.2562C13.1285 10.9742 13.9917 11.3333 15 11.3333Z" fill="white"></path></svg>