<svg xmlns="http://www.w3.org/2000/svg" width="126" height="56" viewBox="0 0 126 56" fill="none"><path d="M71.077 4.662C71.571 4.68733 72.0333 4.86467 72.464 5.194C73.3633 5.89067 73.4647 6.83433 72.768 8.025C72.3753 8.69633 71.932 9.17133 71.438 9.45C71.0833 9.58933 70.7793 9.60833 70.526 9.507C70.2727 9.40567 70.1523 9.23467 70.165 8.994C70.1777 8.75333 70.412 8.37967 70.868 7.873C71.5647 6.847 71.685 6.28333 71.229 6.182C71.0263 6.144 70.621 6.19467 70.013 6.334C69.4177 6.47333 69.12 6.57467 69.12 6.638L69.044 6.733C68.9933 6.72033 68.6323 6.92933 67.961 7.36C67.3023 7.79067 66.9603 8.03767 66.935 8.101C66.9097 8.24033 66.764 8.367 66.498 8.481C66.27 8.62033 66.061 8.81033 65.871 9.051C65.6937 9.29167 65.4593 9.67167 65.168 10.191C64.9527 10.4823 64.8007 10.7927 64.712 11.122C64.56 11.692 64.6993 12.1417 65.13 12.471C65.5733 12.8003 65.9977 13.0663 66.403 13.269C67.049 13.6363 67.6317 14.029 68.151 14.447C68.6703 14.8523 68.987 15.1753 69.101 15.416C69.4683 15.9353 69.519 16.6637 69.253 17.601C69.139 17.8417 68.9933 18.0633 68.816 18.266C68.6387 18.4813 68.4803 18.5827 68.341 18.57C68.227 18.5953 68.1067 18.6397 67.98 18.703C67.866 18.779 67.7647 18.8423 67.676 18.893C67.6 18.9437 67.2453 19.0133 66.612 19.102C65.9913 19.2033 65.472 19.2477 65.054 19.235L64.294 19.007C64.3193 18.9437 64.3067 18.8867 64.256 18.836C64.2053 18.7853 64.1167 18.7537 63.99 18.741C63.724 18.5763 63.439 18.2977 63.135 17.905C62.831 17.4997 62.6473 17.2273 62.584 17.088C62.5333 16.936 62.5017 16.8347 62.489 16.784C62.489 16.7333 62.5017 16.6953 62.527 16.67C62.565 16.632 62.5967 16.6067 62.622 16.594C62.66 16.5813 62.7107 16.5623 62.774 16.537C62.85 16.499 62.907 16.4737 62.945 16.461C63.363 16.1823 63.6417 16.1887 63.781 16.48C64.0343 16.9487 64.4713 17.278 65.092 17.468C65.7253 17.658 66.3967 17.62 67.106 17.354C67.6887 17.1007 67.7583 16.6193 67.315 15.91C67.2643 15.7833 67.125 15.6313 66.897 15.454C66.6817 15.2767 66.479 15.0993 66.289 14.922C66.0103 14.7953 65.6873 14.6433 65.32 14.466C64.9653 14.2887 64.5917 14.0353 64.199 13.706C63.8063 13.364 63.534 13.0473 63.382 12.756C63.0907 12.452 62.9513 12.0213 62.964 11.464C62.9767 10.894 63.116 10.362 63.382 9.868C63.534 9.526 63.9013 9.00033 64.484 8.291C65.0667 7.58167 65.4973 7.13833 65.776 6.961L66.384 6.391C66.3967 6.37833 66.4663 6.34667 66.593 6.296C66.9097 6.16933 67.2137 5.973 67.505 5.707C68.949 5.01033 70.1397 4.662 71.077 4.662ZM75.4537 12.11C74.985 12.11 74.2123 13.0157 73.1357 14.827C72.9457 15.131 72.7747 15.53 72.6227 16.024C72.8253 16.0493 73.218 15.8213 73.8007 15.34C73.9147 15.2387 74.0667 15.1057 74.2567 14.941C74.4593 14.7763 74.605 14.656 74.6937 14.58C74.7823 14.504 74.8963 14.4027 75.0357 14.276C75.2763 14.0353 75.4917 13.7757 75.6817 13.497L76.0997 12.813C75.8843 12.3443 75.669 12.11 75.4537 12.11ZM70.9887 17.069C70.9887 16.955 70.9063 16.7967 70.7417 16.594C70.5517 16.404 70.9443 15.416 71.9197 13.63C71.9957 13.554 72.0907 13.421 72.2047 13.231C72.3313 13.041 72.4137 12.9333 72.4517 12.908C72.4517 12.8573 72.4707 12.813 72.5087 12.775C72.5467 12.7243 72.591 12.699 72.6417 12.699L72.7937 12.395C72.8443 12.281 73.0913 12.0087 73.5347 11.578C73.978 11.1473 74.3327 10.8497 74.5987 10.685C74.8647 10.5203 75.137 10.4443 75.4157 10.457C75.6943 10.4697 75.935 10.5583 76.1377 10.723C76.163 10.761 76.2453 10.8307 76.3847 10.932C76.6253 11.122 77.1637 11.5907 77.9997 12.338L77.6767 13.288C77.3853 14.124 77.4613 14.8967 77.9047 15.606C78.0313 15.872 78.2467 16.0303 78.5507 16.081C78.8547 16.1317 79.0067 16.271 79.0067 16.499C79.0067 17.0183 78.8357 17.316 78.4937 17.392C77.5057 17.5313 76.7647 17.126 76.2707 16.176C76.0933 15.9353 75.9793 15.6567 75.9287 15.34C75.84 15.4667 75.6943 15.6313 75.4917 15.834C73.769 17.582 72.4643 18.171 71.5777 17.601C71.5397 17.525 71.432 17.4237 71.2547 17.297C71.0773 17.1703 70.9887 17.0943 70.9887 17.069ZM79.8001 11.255C79.8507 11.217 79.9584 11.1917 80.1231 11.179C80.3004 11.1537 80.4207 11.1473 80.4841 11.16C80.7627 11.2613 81.0161 12.034 81.2441 13.478C81.2694 13.706 81.2947 13.9213 81.3201 14.124C81.3834 14.466 81.4214 14.656 81.4341 14.694C81.4467 14.732 81.4657 14.827 81.4911 14.979C81.5164 15.1183 81.5481 15.188 81.5861 15.188C81.7254 15.188 82.1814 14.6307 82.9541 13.516C83.3974 12.8827 83.7647 12.4267 84.0561 12.148C84.3474 11.8693 84.5627 11.711 84.7021 11.673C85.0061 11.6223 85.1897 11.7363 85.2531 12.015C85.3291 12.281 85.2404 12.5913 84.9871 12.946C84.9111 13.0473 84.8287 13.1867 84.7401 13.364C84.6641 13.5287 84.5817 13.687 84.4931 13.839C84.4171 13.991 84.1891 14.3203 83.8091 14.827C83.4417 15.3337 83.2201 15.625 83.1441 15.701C83.0807 15.7643 82.9984 15.8403 82.8971 15.929C82.5804 16.195 82.3651 16.4167 82.2511 16.594C81.9597 16.8853 81.6684 17.069 81.3771 17.145C81.0857 17.2083 80.8704 17.1577 80.7311 16.993C80.5917 16.8917 80.4017 16.461 80.1611 15.701C79.9204 14.941 79.7621 14.333 79.6861 13.877C79.6101 13.4083 79.4961 12.946 79.3441 12.49C79.2807 12.2747 79.2997 12.0403 79.4011 11.787C79.5024 11.5337 79.6354 11.3563 79.8001 11.255ZM87.6101 13.345C87.6608 13.3197 87.7115 13.307 87.7621 13.307C87.8255 13.307 87.9078 13.383 88.0091 13.535C88.1105 13.687 88.2498 13.763 88.4271 13.763C88.7818 13.763 89.0731 13.611 89.3011 13.307C89.5418 13.003 89.6621 12.7433 89.6621 12.528C89.6621 12.072 89.5355 11.844 89.2821 11.844C89.0668 11.844 88.8261 11.9453 88.5601 12.148C88.2941 12.3507 88.0598 12.6167 87.8571 12.946L87.6101 13.345ZM89.0161 10.419C90.4348 10.419 91.1441 11.008 91.1441 12.186C91.1441 12.794 90.8591 13.44 90.2891 14.124C89.7318 14.808 89.1618 15.15 88.5791 15.15C88.0091 15.15 87.5278 14.9663 87.1351 14.599C86.9198 15.0297 86.8121 15.378 86.8121 15.644C86.8121 15.91 86.8121 16.081 86.8121 16.157C86.8248 16.233 86.8501 16.3407 86.8881 16.48C86.9515 16.708 87.1035 16.822 87.3441 16.822C87.5975 16.822 87.8001 16.803 87.9521 16.765C88.1041 16.7143 88.2118 16.67 88.2751 16.632C88.3511 16.594 88.4588 16.5243 88.5981 16.423C88.7501 16.309 88.8768 16.2203 88.9781 16.157C89.0921 16.0937 89.1998 16.0303 89.3011 15.967C89.4025 15.9037 89.4721 15.8593 89.5101 15.834C89.5988 15.7833 89.6685 15.7517 89.7191 15.739C89.9091 15.739 90.0865 15.796 90.2511 15.91C90.4158 16.024 90.4981 16.157 90.4981 16.309C90.4981 16.4483 90.3841 16.6637 90.1561 16.955C89.9281 17.2337 89.6938 17.43 89.4531 17.544L89.2441 17.658C89.1301 17.81 89.0161 17.886 88.9021 17.886H88.7501C88.6995 17.9873 88.5285 18.0887 88.2371 18.19C87.9585 18.2913 87.6925 18.342 87.4391 18.342C85.9951 18.342 85.2731 17.5187 85.2731 15.872C85.2731 14.9473 85.5898 13.915 86.2231 12.775C87.0971 11.2043 88.0281 10.419 89.0161 10.419ZM101.464 9.013H101.388C101.3 8.975 101.053 9.00033 100.647 9.089C100.255 9.17767 100.052 9.24733 100.039 9.298C100.027 9.336 99.8684 9.39933 99.5644 9.488C99.2604 9.57667 99.0767 9.621 99.0134 9.621C98.9247 9.59567 98.817 9.431 98.6904 9.127C98.5637 8.823 98.513 8.62667 98.5384 8.538C98.5764 8.44933 98.7474 8.31 99.0514 8.12C99.3554 7.93 99.634 7.778 99.8874 7.664C100.153 7.60067 100.59 7.53733 101.198 7.474C101.819 7.398 102.243 7.36633 102.471 7.379C103.675 7.51833 104.371 8.03767 104.561 8.937C104.675 9.507 104.403 10.0897 103.744 10.685C103.592 10.7863 103.428 10.894 103.25 11.008C102.642 11.426 102.212 11.6857 101.958 11.787C101.718 11.8883 101.515 11.9707 101.35 12.034C101.198 12.0847 101.122 12.1227 101.122 12.148C102.11 12.262 102.965 12.8067 103.687 13.782C103.941 14.352 103.871 14.998 103.478 15.72C103.098 16.4293 102.566 16.9867 101.882 17.392C101.338 17.696 100.445 17.8923 99.2034 17.981C98.7347 17.981 98.2977 17.8607 97.8924 17.62C97.487 17.3793 97.297 17.1387 97.3224 16.898C97.3477 16.4293 97.62 16.233 98.1394 16.309C98.7854 16.4483 99.4377 16.4483 100.096 16.309C100.768 16.1697 101.274 15.929 101.616 15.587C101.971 15.2323 102.148 14.941 102.148 14.713C102.161 14.485 102.015 14.2697 101.711 14.067C101.407 13.8517 101.059 13.6807 100.666 13.554C100.274 13.4273 99.9634 13.3767 99.7354 13.402C99.52 13.4147 99.2034 13.3133 98.7854 13.098C98.7094 13.022 98.6334 12.8763 98.5574 12.661C98.494 12.433 98.456 12.3063 98.4434 12.281C98.418 12.1923 98.5447 12.053 98.8234 11.863C99.102 11.673 99.7924 11.2803 100.894 10.685C101.996 10.077 102.636 9.697 102.813 9.545C102.978 9.38033 103.041 9.25367 103.003 9.165C102.978 9.06367 102.813 8.98133 102.509 8.918C101.813 8.85467 101.464 8.88633 101.464 9.013ZM111.5 9.716C111.399 9.57667 111.221 9.507 110.968 9.507C110.727 9.507 110.499 9.583 110.284 9.735C110.195 9.78567 110.094 9.792 109.98 9.754C109.879 9.716 109.828 9.66533 109.828 9.602C109.828 9.45 109.758 9.44367 109.619 9.583C109.492 9.70967 109.252 9.99467 108.897 10.438C108.694 10.6407 108.504 10.8687 108.327 11.122C108.162 11.3627 108.08 11.502 108.08 11.54C108.08 11.5653 108.023 11.7237 107.909 12.015C107.82 12.1543 107.7 12.4013 107.548 12.756C107.396 13.098 107.301 13.345 107.263 13.497V14.751C107.263 15.017 107.301 15.207 107.377 15.321C107.466 15.473 107.656 15.7327 107.947 16.1C108.074 16.2013 108.156 16.252 108.194 16.252C108.245 16.2393 108.308 16.2203 108.384 16.195C108.473 16.157 108.561 16.1317 108.65 16.119C108.954 16.119 109.195 16.0303 109.372 15.853C109.879 15.511 110.271 15.017 110.55 14.371C110.727 14.1177 110.968 13.5603 111.272 12.699C111.449 12.433 111.538 12.0593 111.538 11.578C111.538 11.084 111.57 10.723 111.633 10.495C111.633 10.191 111.627 10.0073 111.614 9.944C111.601 9.868 111.563 9.792 111.5 9.716ZM110.208 7.759C110.385 7.70833 110.708 7.683 111.177 7.683C111.658 7.683 112.133 7.797 112.602 8.025C113.083 8.24033 113.324 8.443 113.324 8.633V8.766C113.324 8.918 113.299 8.98133 113.248 8.956C113.223 8.956 113.185 8.956 113.134 8.956H112.944L113.134 9.526C113.261 9.80467 113.324 10.0833 113.324 10.362C113.324 10.6407 113.261 11.103 113.134 11.749C113.007 12.395 112.906 12.8003 112.83 12.965C112.767 13.1297 112.735 13.2943 112.735 13.459C112.697 13.535 112.608 13.7187 112.469 14.01C112.342 14.3013 112.266 14.4723 112.241 14.523C112.114 14.637 112.083 14.7257 112.146 14.789C112.146 14.8523 112.083 15.0043 111.956 15.245C111.829 15.473 111.734 15.587 111.671 15.587C111.62 15.587 111.595 15.6123 111.595 15.663C111.595 15.8023 111.31 16.157 110.74 16.727C110.537 16.9423 110.189 17.202 109.695 17.506C109.214 17.7973 108.884 17.943 108.707 17.943C108.53 17.943 108.226 17.8733 107.795 17.734C107.377 17.5947 107.079 17.449 106.902 17.297C105.838 16.385 105.433 15.074 105.686 13.364C105.825 12.5533 106.117 11.749 106.56 10.951C107.016 10.1403 107.567 9.45 108.213 8.88C108.872 8.29733 109.537 7.92367 110.208 7.759ZM124.063 6.828C124.151 6.77733 124.253 6.77733 124.367 6.828C124.557 7.04333 124.709 7.246 124.823 7.436C124.975 7.65133 124.943 7.91733 124.728 8.234C124.588 8.44933 124.455 8.60767 124.329 8.709C124.164 8.84833 123.847 9.127 123.379 9.545C121.935 10.989 121.2 11.768 121.175 11.882C121.048 11.9833 120.915 12.1227 120.776 12.3C119.889 13.0853 119.433 13.5287 119.408 13.63C119.319 13.744 119.243 13.8137 119.18 13.839L119.047 13.953C119.047 14.067 118.838 14.3203 118.42 14.713C116.355 17.2083 115.266 18.589 115.152 18.855C115.038 19.1337 114.898 19.3427 114.734 19.482C114.582 19.6213 114.449 19.7037 114.335 19.729C113.917 19.691 113.67 19.4947 113.594 19.14C113.53 18.7853 113.727 18.266 114.183 17.582C114.436 17.3033 114.582 17.1133 114.62 17.012C114.848 16.6953 115.861 15.5237 117.66 13.497C117.71 13.5097 117.767 13.4907 117.831 13.44C117.894 13.3767 117.957 13.2627 118.021 13.098C118.084 12.9333 118.198 12.8383 118.363 12.813C118.375 12.775 118.413 12.7243 118.477 12.661C118.54 12.585 118.572 12.5343 118.572 12.509C118.584 12.471 118.616 12.433 118.667 12.395C118.717 12.3443 118.749 12.3 118.762 12.262C119.078 11.996 119.959 11.084 121.403 9.526C122.859 7.95533 123.619 7.10667 123.683 6.98C123.733 6.81533 123.86 6.76467 124.063 6.828ZM121.631 15.378C121.631 15.15 121.605 15.017 121.555 14.979C121.276 14.8523 121.004 14.922 120.738 15.188C120.383 15.4667 119.971 16.1 119.503 17.088C119.313 17.544 119.344 17.848 119.598 18C119.851 18.1393 120.244 17.9113 120.776 17.316C121.346 16.6827 121.631 16.0367 121.631 15.378ZM119.826 14.105C120.282 13.7123 120.763 13.4653 121.27 13.364C121.498 13.288 121.662 13.2563 121.764 13.269C121.865 13.2817 121.985 13.3703 122.125 13.535C122.378 13.6363 122.612 13.8137 122.828 14.067C123.043 14.3203 123.163 14.5863 123.189 14.865C123.265 15.6883 123.03 16.4927 122.486 17.278C121.941 18.0633 121.403 18.6143 120.871 18.931C120.275 19.311 119.718 19.5137 119.199 19.539C118.996 19.539 118.787 19.4377 118.572 19.235C118.369 19.0323 118.204 18.8043 118.078 18.551C117.964 18.3103 117.926 18.1013 117.964 17.924L117.983 17.582C117.932 17.5187 117.938 17.4553 118.002 17.392C118.065 17.392 118.078 17.3097 118.04 17.145C118.002 16.9677 118.217 16.4737 118.686 15.663C119.154 14.8523 119.534 14.333 119.826 14.105ZM116.786 10.894C117.077 11.0333 117.501 10.799 118.059 10.191C118.616 9.57033 118.882 8.94333 118.857 8.31C118.857 8.082 118.831 7.949 118.781 7.911C118.515 7.78433 118.249 7.854 117.983 8.12C117.615 8.39867 117.197 9.032 116.729 10.02C116.539 10.476 116.558 10.7673 116.786 10.894ZM115.228 10.324C115.291 10.324 115.304 10.2417 115.266 10.077C115.228 9.89967 115.443 9.39933 115.912 8.576C116.393 7.75267 116.773 7.23333 117.052 7.018C117.495 6.638 117.976 6.39733 118.496 6.296C118.724 6.22 118.888 6.18833 118.99 6.201C119.091 6.21367 119.211 6.30233 119.351 6.467C119.604 6.56833 119.838 6.74567 120.054 6.999C120.269 7.25233 120.389 7.512 120.415 7.778C120.491 8.60133 120.225 9.45633 119.617 10.343C118.629 11.6983 117.565 12.4013 116.425 12.452C116.222 12.452 116.019 12.3507 115.817 12.148C115.323 11.6667 115.114 11.236 115.19 10.856L115.209 10.514C115.171 10.4507 115.164 10.4063 115.19 10.381C115.215 10.3557 115.228 10.3367 115.228 10.324Z" fill="#000C60"></path><path d="M1.18778 40.2126C15.1604 38.4578 29.9263 32.3969 40.4825 22.766" stroke="#000C60" stroke-opacity="0.22" stroke-width="2" stroke-linecap="round"></path><path d="M31.4474 21.8072C36.2154 22.9537 40.7074 22.5608 43.2303 20.2591" stroke="#000C60" stroke-opacity="0.22" stroke-width="2" stroke-linecap="round"></path><path d="M40.6108 31.851C39.9053 26.9981 40.7074 22.5608 43.2303 20.2591" stroke="#000C60" stroke-opacity="0.22" stroke-width="2" stroke-linecap="round"></path></svg>