<svg xmlns="http://www.w3.org/2000/svg" width="104" height="36" viewBox="0 0 104 36" fill="none"><path d="M48.04 26H51.12C51.64 24.64 52.14 23.28 52.66 21.92C54.64 21.92 56.64 21.92 58.62 21.92L60.18 26H63.36L57.44 10.4H53.96L48.04 26ZM53.72 19.04C54.42 17.24 55.12 15.4 55.64 13.98H55.68C56.48 16.16 57.08 17.78 57.56 19.04H53.72ZM64.6306 26H67.6106V10.4H64.6306V26ZM70.5002 26H77.0002C79.3002 26 82.3602 25 82.3602 21.74C82.3602 19.58 81.0402 18.4 79.3002 18.02V17.98C80.9802 17.48 81.8002 15.94 81.8002 14.44C81.8002 12.14 80.1002 10.4 77.0402 10.4H70.5002V26ZM73.4802 23.26C73.4802 21.98 73.4802 20.68 73.4802 19.4H76.4402C77.6202 19.4 79.1802 19.84 79.1802 21.34C79.1802 22.86 77.6002 23.26 76.4002 23.26H73.4802ZM73.4802 16.84C73.4802 15.62 73.4802 14.36 73.4802 13.14H76.1202C77.2802 13.14 78.6802 13.56 78.6802 15C78.6802 16.44 77.3002 16.84 76.1002 16.84H73.4802ZM89.1775 26.34C92.5775 26.34 94.9375 23.92 94.9375 20.44C94.9375 16.98 92.5775 14.52 89.1775 14.52C85.7775 14.52 83.4175 16.98 83.4175 20.44C83.4175 23.92 85.7775 26.34 89.1775 26.34ZM86.3175 20.44C86.3175 18.54 87.4975 17.2 89.1775 17.2C90.8575 17.2 92.0175 18.52 92.0175 20.44C92.0175 22.32 90.8575 23.66 89.1775 23.66C87.4975 23.66 86.3175 22.32 86.3175 20.44ZM101.154 26.34C101.934 26.34 102.674 26.22 103.234 25.92V23.4C102.794 23.64 102.274 23.8 101.734 23.8C100.214 23.8 100.214 22.5 100.214 21.44C100.214 20.08 100.214 18.74 100.214 17.38H103.234V14.84C102.234 14.84 101.214 14.84 100.214 14.84V11.68H97.4142C97.4142 12.74 97.4142 13.8 97.4142 14.84H95.2142V17.38C95.9542 17.38 96.6742 17.38 97.4142 17.38V22.44C97.4142 23.6 97.4142 26.34 101.154 26.34Z" fill="#272657"></path><g clip-path="url(#clip0_26_302)"><path d="M3.93041 24.3037C4.31176 25.149 4.76707 25.9589 5.29102 26.724C5.27982 26.0737 5.41755 25.4295 5.69366 24.8406C5.96977 24.2517 6.37695 23.7338 6.88403 23.3265C7.39111 22.9192 7.98465 22.6333 8.61922 22.4907C9.2538 22.3481 9.91259 22.3525 10.5452 22.5037C10.1126 21.79 9.77585 21.0225 9.54364 20.2209C9.43009 19.8117 9.34193 19.3958 9.27964 18.9757C9.08229 17.6439 9.17096 16.2853 9.53975 14.9905C9.90854 13.6956 10.549 12.4942 11.4184 11.4663C12.2879 10.4383 13.3664 9.6074 14.5821 9.02886C15.7978 8.45033 17.1228 8.13746 18.4689 8.11109H18.7273C20.4396 8.11304 22.1186 8.58426 23.5818 9.47355C23.4339 8.84407 23.4305 8.18927 23.5718 7.55829C23.7131 6.9273 23.9955 6.33651 24.3978 5.83024C24.8 5.32398 25.3117 4.91539 25.8944 4.63512C26.4772 4.35486 27.1158 4.21021 27.7624 4.21201H27.7984C26.376 3.23399 24.8024 2.49675 23.1406 2.02986L23.1203 2.02524C23.089 2.02074 23.0582 2.01395 23.0279 2.00494C18.9668 0.866867 14.6219 1.35972 10.9188 3.37848C7.21583 5.39724 4.44757 8.78229 3.20394 12.8123C3.20266 12.8237 3.19987 12.8349 3.19564 12.8456C3.19564 12.8566 3.1901 12.8714 3.18641 12.8843C2.03989 16.655 2.30375 20.714 3.93041 24.3037Z" fill="url(#paint0_linear_26_302)"></path><path d="M31.3311 30.2569C34.0314 27.5518 35.6896 23.9799 36.0131 20.1714C36.3367 16.3629 35.3049 12.5625 33.0997 9.44058C33.0857 9.42508 33.073 9.40841 33.0618 9.39073C33.0543 9.3819 33.0472 9.37266 33.0406 9.36304C32.9197 9.19135 32.7941 9.01689 32.6575 8.84796C32.2482 8.31723 31.8051 7.81342 31.3311 7.33966C30.6995 6.72706 29.8524 6.38744 28.9726 6.39414C28.0927 6.40084 27.2509 6.75332 26.6287 7.37546C26.0066 7.9976 25.6541 8.83948 25.6474 9.7193C25.6407 10.5991 25.9803 11.4463 26.5929 12.0778C27.6786 13.1552 28.484 14.4822 28.9385 15.9427C28.9505 15.9726 28.9597 16.0035 28.9661 16.035C29.4584 17.6677 29.5058 19.4022 29.1037 21.0593C29.0957 21.0891 29.0852 21.1181 29.0723 21.1461C28.5685 23.1366 27.4311 24.9093 25.8316 26.1967C24.2322 27.4842 22.2574 28.2165 20.2052 28.2833H20.1877C18.1092 28.3533 16.0655 27.7369 14.3723 26.5295C14.3485 26.5169 14.3259 26.502 14.3049 26.4852L14.2975 26.4806C14.2644 26.457 14.2335 26.4304 14.2052 26.4012L14.0068 26.2563C13.8047 26.1006 13.6112 25.9342 13.4271 25.7578C13.3477 25.6867 13.2508 25.599 13.1612 25.5067C12.5325 24.8782 11.6799 24.5251 10.7909 24.5252C9.90189 24.5253 9.04932 24.8785 8.42076 25.5072C7.7922 26.1359 7.43912 26.9885 7.43921 27.8775C7.4393 28.7665 7.79254 29.6191 8.42122 30.2477C8.46461 30.291 8.50799 30.3353 8.55599 30.375C10.8586 32.6305 13.7846 34.1437 16.956 34.719L16.9975 34.7283C17.9445 34.8976 18.9045 34.9828 19.8665 34.983C24.1645 34.9835 28.2876 33.2807 31.3329 30.2477L31.3311 30.2569Z" fill="url(#paint1_linear_26_302)"></path></g><defs><linearGradient id="paint0_linear_26_302" x1="15.1415" y1="1.40479" x2="15.1415" y2="26.724" gradientUnits="userSpaceOnUse"><stop stop-color="#5698D5"></stop><stop offset="1" stop-color="#AA9DF2"></stop></linearGradient><linearGradient id="paint1_linear_26_302" x1="21.7553" y1="6.39404" x2="21.7553" y2="34.983" gradientUnits="userSpaceOnUse"><stop stop-color="#5698D5"></stop><stop offset="1" stop-color="#AA9DF2"></stop></linearGradient><clipPath id="clip0_26_302"><rect width="36" height="36" fill="white"></rect></clipPath></defs></svg>