<svg xmlns="http://www.w3.org/2000/svg" width="75" height="75" viewBox="0 0 75 75" fill="none"><path d="M62.7671 34.1097C62.5909 34.1097 62.4169 34.0272 62.3074 33.872C62.1281 33.6185 62.1881 33.2675 62.4416 33.0882C63.0094 32.6862 63.3116 32.447 63.3191 32.4417C63.5614 32.2475 63.9154 32.2887 64.1096 32.5317C64.3031 32.7747 64.2626 33.1287 64.0196 33.3222C64.0196 33.3222 63.6994 33.5772 63.0926 34.007C62.9929 34.076 62.8796 34.1097 62.7671 34.1097Z" fill="#1D2840"></path><path d="M62.3025 33.8697C62.1308 33.6147 62.1908 33.2697 62.445 33.0897C62.6925 32.9097 63.045 32.9697 63.225 33.2247C63.405 33.4797 63.345 33.8247 63.09 34.0047C62.9925 34.0797 62.88 34.1097 62.7668 34.1097C62.5883 34.1097 62.4158 34.0272 62.3025 33.8697Z" fill="#1D2840"></path><path d="M34.2758 43.6873C33.9758 43.6873 33.7208 43.4398 33.7133 43.1398C33.7133 42.9898 33.7651 42.8473 33.8708 42.7348C33.9758 42.6298 34.1183 42.5698 34.2676 42.5623C34.9576 42.5473 35.6858 42.5173 36.4126 42.4648C36.7276 42.4423 36.9901 42.6823 37.0126 42.9898V43.0123C37.0201 43.3123 36.7876 43.5673 36.4876 43.5823C35.7601 43.6348 35.0176 43.6723 34.2901 43.6873H34.2758ZM32.1008 43.6873H32.0933C31.3433 43.6648 30.6008 43.6273 29.8883 43.5748C29.5891 43.5448 29.3558 43.2973 29.3633 42.9973C29.3633 42.9898 29.3633 42.9748 29.3633 42.9673C29.3933 42.6598 29.6708 42.4348 29.9716 42.4498C30.6991 42.5023 31.4191 42.5398 32.1158 42.5623C32.4158 42.5698 32.6566 42.8098 32.6633 43.1098V43.1323C32.6558 43.4398 32.4008 43.6873 32.1008 43.6873ZM38.6183 43.3873C38.3326 43.3873 38.0933 43.1698 38.0558 42.8848C38.0558 42.8698 38.0558 42.8473 38.0558 42.8323C38.0476 42.5398 38.2651 42.2998 38.5501 42.2623C39.2851 42.1798 40.0051 42.0748 40.6808 41.9623C41.0033 41.9173 41.2808 42.1273 41.3251 42.4273C41.3326 42.4573 41.3326 42.4873 41.3326 42.5173C41.3408 42.7948 41.1376 43.0273 40.8601 43.0723C40.0951 43.1998 39.3826 43.2973 38.6858 43.3798C38.6633 43.3798 38.6408 43.3873 38.6183 43.3873ZM27.7658 43.3573C27.7441 43.3573 27.7141 43.3573 27.6908 43.3498C26.9633 43.2598 26.2283 43.1473 25.5158 43.0198C25.2383 42.9748 25.0433 42.7273 25.0508 42.4573C25.0508 42.4273 25.0508 42.3973 25.0591 42.3673C25.1108 42.0673 25.4041 41.8573 25.7116 41.9098C26.4091 42.0373 27.1216 42.1423 27.8333 42.2323C28.1191 42.2698 28.3366 42.5173 28.3283 42.8098C28.3283 42.8248 28.3208 42.8473 28.3208 42.8623C28.2833 43.1473 28.0433 43.3573 27.7658 43.3573ZM42.9158 42.6823C42.6458 42.6823 42.4133 42.4948 42.3608 42.2398C42.3533 42.1948 42.3533 42.1573 42.3533 42.1198C42.3458 41.8573 42.5408 41.6248 42.7958 41.5723C43.4783 41.4298 44.1841 41.2648 44.8958 41.0848C45.1891 41.0098 45.5041 41.1973 45.5783 41.4898C45.5941 41.5348 45.5941 41.5873 45.5941 41.6323C45.5941 41.8873 45.4216 42.1123 45.1733 42.1723C44.4991 42.3448 43.7708 42.5173 43.0291 42.6748C42.9901 42.6823 42.9533 42.6823 42.9158 42.6823ZM23.4758 42.5998C23.4383 42.5998 23.3933 42.5923 23.3558 42.5848C22.6516 42.4273 21.9383 42.2398 21.2183 42.0373C20.9708 41.9698 20.7976 41.7373 20.8058 41.4823C20.8058 41.4373 20.8133 41.3923 20.8276 41.3473C20.9101 41.0548 21.2251 40.8748 21.5258 40.9573C22.2076 41.1448 22.9058 41.3248 23.6033 41.4823C23.8583 41.5423 24.0383 41.7598 24.0383 42.0223C24.0458 42.0673 24.0383 42.1123 24.0233 42.1648C23.9708 42.4123 23.7376 42.5998 23.4758 42.5998ZM47.1383 41.6098H47.1308C46.8833 41.6098 46.6658 41.4523 46.5908 41.2123C46.5751 41.1598 46.5683 41.0998 46.5683 41.0473C46.5683 40.7998 46.7333 40.5823 46.9658 40.5148C47.6183 40.3198 48.2701 40.1098 48.9758 39.8698L49.0208 39.8548C49.3066 39.7573 49.6358 39.9148 49.7333 40.1998C49.7558 40.2673 49.7708 40.3273 49.7633 40.3948C49.7633 40.6348 49.6058 40.8448 49.3883 40.9198C48.7141 41.1523 48.0083 41.3773 47.2958 41.5873C47.2433 41.6023 47.1908 41.6098 47.1383 41.6098ZM19.2908 41.4223C19.2308 41.4223 19.1708 41.4073 19.1108 41.3923C18.4133 41.1523 17.7166 40.9048 17.0408 40.6423C16.8233 40.5523 16.6816 40.3348 16.6816 40.1023C16.6816 40.0348 16.6966 39.9748 16.7191 39.9073C16.8308 39.6298 17.1691 39.4798 17.4533 39.5923C18.1358 39.8548 18.8183 40.1023 19.4708 40.3198C19.7033 40.4023 19.8608 40.6198 19.8533 40.8673C19.8533 40.9198 19.8458 40.9798 19.8233 41.0323C19.7483 41.2648 19.5308 41.4223 19.2908 41.4223ZM51.2483 40.1998C51.0151 40.1998 50.8058 40.0573 50.7233 39.8398C50.7008 39.7798 50.6858 39.7198 50.6858 39.6523C50.6776 39.4123 50.8276 39.1948 51.0451 39.1123C51.7133 38.8573 52.3801 38.5798 53.0401 38.2948H53.0476C53.3176 38.1748 53.6558 38.3173 53.7758 38.5873C53.8058 38.6548 53.8208 38.7298 53.8276 38.8048C53.8276 39.0373 53.6926 39.2398 53.4826 39.3298C52.8383 39.6073 52.1551 39.8923 51.4501 40.1623C51.3833 40.1923 51.3158 40.1998 51.2483 40.1998ZM15.2333 39.8398C15.1583 39.8398 15.0833 39.8248 15.0083 39.7948C14.3483 39.5023 13.6958 39.1873 13.0583 38.8723C13.0501 38.8723 13.0358 38.8648 13.0126 38.8573L12.9608 38.8273V38.8198C12.8026 38.7148 12.7051 38.5348 12.7051 38.3398C12.7051 38.2573 12.7276 38.1748 12.7651 38.0998C12.9008 37.8298 13.2458 37.7098 13.5233 37.8448C14.1233 38.1448 14.7601 38.4523 15.4133 38.7448L15.4658 38.7673C15.6751 38.8573 15.8026 39.0598 15.7951 39.2923C15.7951 39.3673 15.7801 39.4348 15.7501 39.5098C15.6608 39.7123 15.4576 39.8398 15.2333 39.8398ZM55.2458 38.4748C55.0283 38.4748 54.8326 38.3473 54.7351 38.1523C54.6976 38.0773 54.6751 37.9948 54.6833 37.9048C54.6833 37.6948 54.8026 37.4998 54.9983 37.4023C55.6358 37.1023 56.2808 36.7723 56.9251 36.4348C57.1951 36.2923 57.5476 36.4048 57.6833 36.6673C57.7283 36.7498 57.7508 36.8473 57.7508 36.9373C57.7508 37.1473 57.6308 37.3348 57.4508 37.4323C56.8366 37.7548 56.1758 38.0848 55.4858 38.4148C55.4108 38.4523 55.3283 38.4748 55.2458 38.4748ZM11.3408 37.8973C11.2508 37.8973 11.1533 37.8748 11.0708 37.8298C11.0633 37.8223 11.0483 37.8148 11.0408 37.8148C10.7858 37.6498 10.7033 37.3198 10.8458 37.0573C10.9808 36.8173 11.2883 36.7048 11.5501 36.8098C11.5726 36.8173 11.5958 36.8323 11.6183 36.8398C11.7976 36.9448 11.9108 37.1323 11.9033 37.3423C11.9033 37.4323 11.8808 37.5298 11.8358 37.6123C11.7376 37.7848 11.5501 37.8973 11.3408 37.8973ZM59.0933 36.4423C58.8983 36.4423 58.7108 36.3373 58.6058 36.1648C58.5608 36.0823 58.5383 35.9923 58.5308 35.8948C58.5308 35.6923 58.6358 35.4973 58.8158 35.3923C59.4458 35.0323 60.0683 34.6573 60.6608 34.2823C60.9158 34.1173 61.2758 34.1998 61.4333 34.4548C61.5151 34.5823 61.5383 34.7323 61.5083 34.8748C61.4783 35.0248 61.3883 35.1523 61.2608 35.2273C60.6758 35.6023 60.0458 35.9848 59.3783 36.3673C59.2883 36.4198 59.1983 36.4423 59.0933 36.4423Z" fill="#1D2840"></path><path d="M11.333 37.8926C11.2408 37.8926 11.147 37.8701 11.0608 37.8221C10.7323 37.6391 10.4023 37.4516 10.073 37.2589C9.8053 37.1021 9.71455 36.7571 9.8713 36.4894C10.028 36.2209 10.3723 36.1316 10.6408 36.2876C10.9633 36.4759 11.285 36.6604 11.6068 36.8381C11.8783 36.9889 11.9758 37.3316 11.825 37.6031C11.723 37.7884 11.531 37.8926 11.333 37.8926Z" fill="#1D2840"></path><path d="M62.8746 38.4667C62.8229 38.4667 62.7689 38.4592 62.7164 38.4442C62.4186 38.3572 62.2476 38.0444 62.3346 37.7467L63.7251 32.9932L58.9394 32.4209C58.6311 32.3842 58.4106 32.1044 58.4474 31.7962C58.4841 31.4879 58.7571 31.2652 59.0729 31.3042L64.5186 31.9552C64.6829 31.9747 64.8299 32.0654 64.9214 32.2042C65.0121 32.3422 65.0384 32.5132 64.9919 32.6722L63.4139 38.0632C63.3426 38.3077 63.1184 38.4667 62.8746 38.4667Z" fill="#1D2840"></path></svg>