<svg xmlns="http://www.w3.org/2000/svg" width="42" height="54" viewBox="0 0 42 54" fill="none"><path d="M20.4643 54H12.605L20.48 33.75H5.24977C3.76702 33.75 2.41027 33.066 1.52602 31.8757C0.641767 30.6855 0.380766 29.187 0.810516 27.7673L12.8773 0H32.846L24.971 18H36.6733C38.3855 18 39.8908 18.9 40.7008 20.4097C41.5108 21.9195 41.4298 23.6722 40.4825 25.0987L20.4643 54ZM15.8945 51.75H19.2853L38.6195 23.8365C39.0875 23.13 39.1303 22.239 38.7163 21.474C38.3045 20.7067 37.5418 20.25 36.671 20.25H21.5285L29.4035 2.25H14.351L2.91877 28.5435C2.74327 29.1532 2.87602 29.9227 3.33277 30.537C3.78952 31.149 4.48702 31.5023 5.25202 31.5023H23.7695L15.8945 51.75Z" fill="url(#paint0_linear_593_558)"></path><defs><linearGradient id="paint0_linear_593_558" x1="0.60791" y1="27" x2="41.2554" y2="27" gradientUnits="userSpaceOnUse"><stop offset="0.03125" stop-color="#7B6BE6"></stop><stop offset="1" stop-color="#6200EE"></stop></linearGradient></defs></svg>