<svg xmlns="http://www.w3.org/2000/svg" width="20" height="26" viewBox="0 0 20 26" fill="none"><path d="M16.5 0H3.5C1.70817 0 0.25 1.45817 0.25 3.25V26H19.75V3.25C19.75 1.45817 18.2918 0 16.5 0ZM17.5833 23.8333H2.41667V3.25C2.41667 2.652 2.902 2.16667 3.5 2.16667H16.5C17.098 2.16667 17.5833 2.652 17.5833 3.25V23.8333ZM4.58333 5.41667H15.4167V7.58333H4.58333V5.41667ZM4.58333 10.8333H15.4167V13H4.58333V10.8333ZM4.58333 16.25H10V18.4167H4.58333V16.25Z" fill="url(#paint0_linear_593_543)"></path><defs><linearGradient id="paint0_linear_593_543" x1="0.25" y1="13" x2="19.75" y2="13" gradientUnits="userSpaceOnUse"><stop offset="0.03125" stop-color="#7B6BE6"></stop><stop offset="1" stop-color="#6200EE"></stop></linearGradient></defs></svg>