<svg xmlns="http://www.w3.org/2000/svg" width="41" height="54" viewBox="0 0 41 54" fill="none"><path d="M29.1375 4.5C28.6155 1.935 26.343 0 23.625 0H16.875C14.157 0 11.8868 1.935 11.3625 4.5H0V48.375C0 51.4755 2.5245 54 5.625 54H34.875C37.9755 54 40.5 51.4755 40.5 48.375V4.5H29.1375ZM38.25 48.375C38.25 50.2357 36.7357 51.75 34.875 51.75H5.625C3.76425 51.75 2.25 50.2357 2.25 48.375V6.75H13.5V5.625C13.5 3.76425 15.0142 2.25 16.875 2.25H23.625C25.4858 2.25 27 3.76425 27 5.625V6.75H38.25V48.375ZM25.875 31.5C28.9755 31.5 31.5 34.0245 31.5 37.125V42.75H29.25V37.125C29.25 35.2643 27.7358 33.75 25.875 33.75H14.625C12.7642 33.75 11.25 35.2643 11.25 37.125V42.75H9V37.125C9 34.0245 11.5245 31.5 14.625 31.5H25.875ZM20.25 29.25C23.9715 29.25 27 26.2215 27 22.5C27 18.7785 23.9715 15.75 20.25 15.75C16.5285 15.75 13.5 18.7785 13.5 22.5C13.5 26.2215 16.5285 29.25 20.25 29.25ZM20.25 18C22.7318 18 24.75 20.0182 24.75 22.5C24.75 24.9818 22.7318 27 20.25 27C17.7682 27 15.75 24.9818 15.75 22.5C15.75 20.0182 17.7682 18 20.25 18Z" fill="url(#paint0_linear_593_569)"></path><defs><linearGradient id="paint0_linear_593_569" x1="0" y1="27" x2="40.5" y2="27" gradientUnits="userSpaceOnUse"><stop offset="0.03125" stop-color="#7B6BE6"></stop><stop offset="1" stop-color="#6200EE"></stop></linearGradient></defs></svg>