<svg xmlns="http://www.w3.org/2000/svg" width="22" height="26" viewBox="0 0 22 26" fill="none"><path d="M10.9435 26.0098L10.56 25.8397C10.1332 25.6523 0.166504 21.151 0.166504 13V5.93235C0.166884 5.2522 0.381853 4.58951 0.780797 4.03865C1.17974 3.48779 1.74232 3.07685 2.38842 2.86435L10.9998 0.00976562L19.6113 2.86435C20.2574 3.07685 20.8199 3.48779 21.2189 4.03865C21.6178 4.58951 21.8328 5.2522 21.8332 5.93235V13C21.8332 22.2918 11.7712 25.7346 11.3422 25.8776L10.9435 26.0098ZM10.9998 2.28152L3.07417 4.90968C2.85853 4.98012 2.6707 5.11698 2.5376 5.30068C2.4045 5.48439 2.33294 5.7055 2.33317 5.93235V13C2.33317 18.9518 9.30984 22.8128 11.0508 23.6828C12.7884 22.984 19.6665 19.7849 19.6665 13V5.93235C19.6667 5.7055 19.5952 5.48439 19.4621 5.30068C19.329 5.11698 19.1411 4.98012 18.9255 4.90968L10.9998 2.28152Z" fill="url(#paint0_linear_593_549)"></path><path d="M10.0369 15.7539H10.0011C9.72695 15.7497 9.45644 15.6899 9.206 15.5782C8.95556 15.4665 8.73037 15.3051 8.54406 15.1039L6.0459 12.5039L7.60698 11.0067L10.038 13.5417L15.6507 7.92896L17.1826 9.46079L11.4831 15.1602C11.2933 15.3499 11.0677 15.5 10.8195 15.6019C10.5712 15.7038 10.3052 15.7555 10.0369 15.7539Z" fill="url(#paint1_linear_593_549)"></path><defs><linearGradient id="paint0_linear_593_549" x1="0.166504" y1="0.00976562" x2="25.7403" y2="21.3212" gradientUnits="userSpaceOnUse"><stop stop-color="#0336FF"></stop><stop offset="1" stop-color="#76C5EE"></stop></linearGradient><linearGradient id="paint1_linear_593_549" x1="6.0459" y1="7.92896" x2="13.4076" y2="18.4063" gradientUnits="userSpaceOnUse"><stop stop-color="#0336FF"></stop><stop offset="1" stop-color="#76C5EE"></stop></linearGradient></defs></svg>