<svg xmlns="http://www.w3.org/2000/svg" width="54" height="54" viewBox="0 0 54 54" fill="none"><path d="M53.9999 12.375V42.1425C53.9999 43.5375 53.4824 44.865 52.5599 45.9225L45.3599 54H42.3449L50.8949 44.415C51.4574 43.785 51.7724 42.9975 51.7724 42.1425V12.375C51.7724 10.5075 50.2649 9 48.3974 9C46.5299 9 45.0224 10.5075 45.0224 12.375V32.625C45.0224 33.9075 44.5949 35.19 43.7174 36.225L36.7424 43.4475L35.1224 41.8725L42.0524 34.7175C42.5474 34.11 42.7949 33.345 42.7949 32.5575C42.7949 31.7475 42.4799 30.9825 41.9399 30.3525C41.3324 29.6775 40.5224 29.295 39.6224 29.2275C38.7449 29.205 37.8674 29.475 37.1924 30.0825L28.5074 38.07C29.0024 38.925 29.2949 39.8925 29.2949 40.8825V53.955H27.0449V40.8825C27.0449 39.9375 26.6399 39.0375 25.9649 38.4075L16.8974 30.0825C16.2449 29.4975 15.3899 29.205 14.4674 29.2275C13.5674 29.2725 12.7349 29.6775 12.1499 30.3525C11.0474 31.59 11.0024 33.48 12.0824 34.7625L18.9449 41.85L17.3249 43.425L10.3949 36.27C9.49492 35.2125 9.06742 33.9075 9.04492 32.6025H9.02242V12.375C9.02242 10.5075 7.51492 9 5.64742 9C3.77992 9 2.27242 10.5075 2.27242 12.375V42.1425C2.27242 42.975 2.58742 43.785 3.14992 44.415L11.6999 54H8.68492L1.48492 45.9225C0.539922 44.8875 0.0449219 43.5375 0.0449219 42.1425V12.375C0.0449219 9.27 2.56492 6.75 5.66992 6.75C8.77492 6.75 11.2949 9.27 11.2949 12.375V28.125C12.1724 27.4725 13.2299 27.0675 14.3549 27.0225C15.8624 26.9325 17.3024 27.45 18.4049 28.44L27.0449 36.3825L35.6624 28.44C36.7874 27.4275 38.2274 26.91 39.7349 27C40.8599 27.0675 41.9174 27.45 42.7949 28.1025V12.375C42.7949 9.27 45.3149 6.75 48.4199 6.75C51.5249 6.75 54.0449 9.27 54.0449 12.375H53.9999ZM24.5024 22.5H25.8749V24.75H28.1249V22.5H29.4974C32.4674 22.5 34.8749 20.0925 34.8749 17.1225C34.8749 14.4675 32.9849 12.24 30.3749 11.8125L24.0074 10.755C22.4999 10.5075 21.3749 9.2025 21.3749 7.65C21.3749 5.9175 22.7924 4.5225 24.5024 4.5225H29.4749C31.2074 4.5225 32.6024 5.94 32.6024 7.65V9.0225H34.8524V7.65C34.8524 4.68 32.4449 2.2725 29.4749 2.2725H28.1024V0H25.8524V2.25H24.4799C21.5099 2.25 19.1024 4.6575 19.1024 7.6275C19.1024 10.2825 20.9924 12.51 23.6024 12.9375L29.9699 13.995C31.4774 14.2425 32.6024 15.5475 32.6024 17.1C32.6024 18.8325 31.1849 20.2275 29.4749 20.2275H24.5024C22.7699 20.2275 21.3749 18.81 21.3749 17.1V15.7275H19.1249V17.1C19.1249 20.07 21.5324 22.4775 24.5024 22.4775V22.5Z" fill="url(#paint0_linear_593_564)"></path><defs><linearGradient id="paint0_linear_593_564" x1="0.0449219" y1="27" x2="54.0449" y2="27" gradientUnits="userSpaceOnUse"><stop offset="0.03125" stop-color="#7B6BE6"></stop><stop offset="1" stop-color="#6200EE"></stop></linearGradient></defs></svg>