<svg xmlns="http://www.w3.org/2000/svg" width="26" height="26" viewBox="0 0 26 26" fill="none"><path d="M21.45 4.78727C20.18 3.06629 18.4663 1.72259 16.4921 0.899654C14.5179 0.0767219 12.3572 -0.194533 10.2408 0.114855C8.18228 0.407517 6.23618 1.23368 4.5958 2.51127C2.95542 3.78885 1.67787 5.4734 0.890041 7.39757C0.102217 9.32173 -0.168453 11.4185 0.104919 13.4797C0.378292 15.5408 1.18619 17.4946 2.44836 19.1469C2.98577 19.8875 3.2672 20.7832 3.25003 21.6981V22.75C3.25003 23.612 3.59244 24.4386 4.20193 25.0481C4.81143 25.6576 5.63808 26 6.50003 26H14.0834C14.9453 26 15.772 25.6576 16.3815 25.0481C16.991 24.4386 17.3334 23.612 17.3334 22.75H17.8685C19.1813 22.7468 20.4486 22.2683 21.4358 21.403C22.423 20.5376 23.0635 19.344 23.2386 18.0429L23.4759 16.25H23.8334C24.1196 16.2561 24.404 16.2042 24.6696 16.0974C24.9352 15.9907 25.1765 15.8313 25.3789 15.6289C25.5813 15.4265 25.7407 15.1852 25.8474 14.9196C25.9542 14.654 26.0061 14.3695 26 14.0834C26 12.545 22.8237 6.48377 21.45 4.78727ZM22.5258 14.0834C22.2631 14.0835 22.0094 14.179 21.8119 14.3522C21.6145 14.5253 21.4866 14.7644 21.4522 15.0248L21.0904 17.7602C20.9851 18.5406 20.6008 19.2566 20.0085 19.7756C19.4162 20.2946 18.656 20.5815 17.8685 20.5834H16.25C15.9627 20.5834 15.6872 20.6975 15.484 20.9007C15.2808 21.1038 15.1667 21.3794 15.1667 21.6667V22.75C15.1667 23.0373 15.0526 23.3129 14.8494 23.5161C14.6462 23.7192 14.3707 23.8334 14.0834 23.8334H6.50003C6.21271 23.8334 5.93716 23.7192 5.734 23.5161C5.53083 23.3129 5.4167 23.0373 5.4167 22.75V21.6981C5.43307 20.3073 4.99529 18.949 4.16978 17.8295C3.1383 16.4784 2.47799 14.881 2.25438 13.1959C2.03076 11.5107 2.2516 9.79644 2.89498 8.22301C3.53837 6.64958 4.58195 5.27171 5.92219 4.22606C7.26244 3.18042 8.85278 2.50335 10.5354 2.26202C10.9949 2.19824 11.4582 2.16639 11.9221 2.16669C13.4444 2.16464 14.9457 2.5214 16.3042 3.20803C17.6628 3.89467 18.8405 4.89184 19.7416 6.11869C21.4526 8.58045 22.8286 11.2588 23.8334 14.0834H22.5258ZM17.55 8.67861C17.4792 8.55513 17.3847 8.44684 17.2719 8.35992C17.1592 8.27299 17.0304 8.20914 16.893 8.17202C16.7555 8.13489 16.6121 8.12522 16.471 8.14355C16.3298 8.16188 16.1936 8.20786 16.0702 8.27886L15.0064 8.88986C14.4546 8.33062 13.761 7.93215 13 7.73719V6.50002C13 6.2127 12.8859 5.93715 12.6827 5.73399C12.4796 5.53083 12.204 5.41669 11.9167 5.41669C11.6294 5.41669 11.3538 5.53083 11.1507 5.73399C10.9475 5.93715 10.8334 6.2127 10.8334 6.50002V7.73719C10.0712 7.9316 9.37642 8.33011 8.82378 8.88986L7.75995 8.27886C7.6366 8.20772 7.50046 8.16158 7.35928 8.14306C7.2181 8.12455 7.07466 8.13402 6.93715 8.17094C6.79963 8.20786 6.67073 8.2715 6.55781 8.35824C6.44489 8.44497 6.35016 8.55309 6.27903 8.67644C6.2079 8.79978 6.16176 8.93593 6.14324 9.07711C6.12472 9.21828 6.1342 9.36172 6.17111 9.49924C6.20803 9.63676 6.27168 9.76565 6.35841 9.87857C6.44514 9.99149 6.55327 10.0862 6.67661 10.1574L7.75236 10.7759C7.64466 11.1468 7.58781 11.5305 7.58336 11.9167C7.58886 12.303 7.64681 12.6867 7.75561 13.0574L6.67986 13.676C6.43076 13.8197 6.24893 14.0564 6.17436 14.3341C6.0998 14.6119 6.13862 14.9078 6.28228 15.1569C6.42594 15.406 6.66267 15.5879 6.9404 15.6624C7.21812 15.737 7.51409 15.6982 7.7632 15.5545L8.82703 14.9435C9.37877 15.5028 10.0723 15.9012 10.8334 16.0962V17.3334C10.8334 17.6207 10.9475 17.8962 11.1507 18.0994C11.3538 18.3026 11.6294 18.4167 11.9167 18.4167C12.204 18.4167 12.4796 18.3026 12.6827 18.0994C12.8859 17.8962 13 17.6207 13 17.3334V16.0962C13.7622 15.9018 14.457 15.5033 15.0096 14.9435L16.0734 15.5545C16.1968 15.6257 16.3329 15.6718 16.4741 15.6903C16.6153 15.7088 16.7587 15.6994 16.8962 15.6624C17.0338 15.6255 17.1627 15.5619 17.2756 15.4751C17.3885 15.3884 17.4832 15.2803 17.5544 15.1569C17.6255 15.0336 17.6716 14.8974 17.6902 14.7563C17.7087 14.6151 17.6992 14.4717 17.6623 14.3341C17.6254 14.1966 17.5617 14.0677 17.475 13.9548C17.3883 13.8419 17.2801 13.7472 17.1568 13.676L16.081 13.0574C16.1887 12.6866 16.2456 12.3028 16.25 11.9167C16.2445 11.5304 16.1866 11.1466 16.0778 10.7759L17.1535 10.1574C17.402 10.0137 17.5834 9.77728 17.6577 9.50002C17.7321 9.22276 17.6933 8.92733 17.55 8.67861ZM11.9167 14.0834C11.4882 14.0834 11.0693 13.9563 10.713 13.7182C10.3567 13.4801 10.0789 13.1417 9.91496 12.7458C9.75097 12.3499 9.70806 11.9143 9.79166 11.494C9.87526 11.0737 10.0816 10.6876 10.3846 10.3846C10.6876 10.0816 11.0737 9.87526 11.494 9.79165C11.9143 9.70805 12.3499 9.75096 12.7458 9.91495C13.1418 10.0789 13.4801 10.3566 13.7182 10.713C13.9563 11.0693 14.0834 11.4882 14.0834 11.9167C14.0834 12.4913 13.8551 13.0424 13.4488 13.4488C13.0424 13.8551 12.4913 14.0834 11.9167 14.0834Z" fill="url(#paint0_linear_593_547)"></path><defs><linearGradient id="paint0_linear_593_547" x1="0.00146484" y1="-0.00933838" x2="26.0108" y2="25.9897" gradientUnits="userSpaceOnUse"><stop stop-color="#75DAD0"></stop><stop offset="1" stop-color="#03DAC5"></stop></linearGradient></defs></svg>